<?xml version="1.0" standalone="no"?>
<!DOCTYPE svg PUBLIC "-//W3C//DTD SVG 1.1//EN" "http://www.w3.org/Graphics/SVG/1.1/DTD/svg11.dtd" >
<svg xmlns="http://www.w3.org/2000/svg" xmlns:xlink="http://www.w3.org/1999/xlink" version="1.1">
<metadata>
Created by FontForge 20190801 at Sun Apr 16 09:42:33 2006
 By root
(c) Copyright SoftMaker Software GmbH and its licensors
</metadata>
<defs>
<font id="AdelonSerialBold" horiz-adv-x="597" >
  <font-face 
    font-family="AdelonSerial"
    font-weight="700"
    font-stretch="normal"
    units-per-em="1000"
    panose-1="0 0 7 0 0 0 0 0 0 0"
    ascent="800"
    descent="-200"
    x-height="497"
    cap-height="721"
    bbox="-90 -233 1079 1090"
    underline-thickness="50"
    underline-position="-125"
    unicode-range="U+0020-2215"
  />
<missing-glyph horiz-adv-x="500" 
d="M31 0v938h438v-938h-438zM438 31v876h-376v-876h376z" />
    <glyph glyph-name=".notdef" horiz-adv-x="500" 
d="M31 0v938h438v-938h-438zM438 31v876h-376v-876h376z" />
    <glyph glyph-name="NULL" horiz-adv-x="0" 
 />
    <glyph glyph-name="nonmarkingreturn" horiz-adv-x="290" 
 />
    <glyph glyph-name="space" unicode=" " horiz-adv-x="290" 
 />
    <glyph glyph-name="exclam" unicode="!" horiz-adv-x="246" 
d="M45 66q0 32 24 55t54 23q32 0 55 -23t23 -55t-23 -55q-11 -11 -24.5 -16.5t-30.5 -5.5q-32 0 -55 22.5t-23 54.5zM43 721h160q-17 -73 -17 -146l2 -76l2 -76q0 -78 -9 -111q-12 -44 -58 -98q-45 51 -58 98q-9 33 -9 111l1 76l2 76q0 79 -16 146z" />
    <glyph glyph-name="quotedbl" unicode="&#x22;" horiz-adv-x="437" 
d="M14 477q56 62 79.5 101.5t23.5 74.5q0 25 -29 69l78 -5q26 0 82 6q-15 -91 -39 -133q-21 -40 -95 -113h-100zM191 477q56 62 79.5 101.5t23.5 74.5q0 24 -30 69l80 -5q27 0 81 6q-15 -91 -39 -133q-20 -38 -96 -113h-99z" />
    <glyph glyph-name="numbersign" unicode="#" horiz-adv-x="631" 
d="M38 214l13 60h115l37 172h-116l13 60h115l44 207h60l-44 -207h96l44 207h60l-44 -207h115l-12 -60h-115l-37 -172h115l-13 -60h-115l-44 -207h-60l44 207h-96l-44 -207h-60l44 207h-115zM226 274h96l37 172h-97z" />
    <glyph glyph-name="dollar" unicode="$" horiz-adv-x="484" 
d="M211 716v68h73v-59q48 0 71.5 -5.5t68.5 -22.5l5 -143q-88 74 -152 74q-20 0 -36 -6t-31 -20q-26 -26 -26 -67q0 -27 11 -43.5t43 -39.5l61 -43l62 -41q39 -25 64 -73t25 -97q0 -63 -42 -119q-24 -32 -52 -50q-10 -6 -29.5 -13.5t-45.5 -15.5v-88h-75v83h-13q-21 0 -38 1
t-35.5 5t-68.5 23v151q42 -48 75 -66t74 -18q46 0 72 22.5t26 60.5q0 32 -21.5 59.5t-73.5 59.5l-72 49q-97 70 -97 176q0 63 40 118q27 38 53 53t84 27z" />
    <glyph glyph-name="percent" unicode="%" horiz-adv-x="739" 
d="M55 0l542 721h87l-541 -721h-88zM32 548q0 184 167 184q162 0 162 -190q0 -178 -167 -178q-162 0 -162 184zM378 173q0 184 168 184q161 0 161 -189q0 -179 -166 -179q-163 0 -163 184zM197 670q-49 0 -49 -122t49 -122q47 0 47 122t-47 122zM543 295q-49 0 -49 -122
t49 -122q48 0 48 122t-48 122z" />
    <glyph glyph-name="ampersand" unicode="&#x26;" horiz-adv-x="809" 
d="M182 391q-46 44 -63 76q-16 35 -16 82q0 76 56.5 128t137.5 52q76 0 123.5 -42.5t47.5 -109.5q0 -46 -20.5 -80.5t-75.5 -78.5q96 -64 177 -138q35 83 46 130q4 21 7 38q8 51 8 95q-35 0 -98 -12l2 32l-3 43l133 -4q69 0 150 7l-3 -37l3 -41q-24 5 -48 9t-49 4
q0 -51 -5.5 -90.5t-14.5 -74.5q-12 -55 -61 -163l18 -18l36 -48q12 -16 27.5 -29t34.5 -22q8 -3 20.5 -5t31.5 -2h11l-61 -55q-49 -43 -80 -43q-22 0 -40 11.5t-81 95.5q-69 -66 -117 -86.5t-130 -20.5q-55 0 -99 14t-82 45q-73 61 -73 148q0 53 32.5 99.5t117.5 90.5z
M468 163q-62 56 -102 88q-32 24 -111 73q-53 -32 -72 -62q-14 -22 -14 -50q0 -50 44 -86.5t104 -36.5q41 0 73.5 15t77.5 59zM240 568q0 -30 12 -51.5t49 -50.5q19 14 31.5 26.5t19.5 23.5q14 23 14 54q0 67 -62 67q-28 0 -47 -19q-17 -19 -17 -50z" />
    <glyph glyph-name="quotesingle" unicode="'" horiz-adv-x="259" 
d="M0 477q51 56 77 99.5t26 75.5q0 26 -29 70q51 -6 78 -6q21 0 83 7q-15 -91 -38 -131.5t-98 -114.5h-99z" />
    <glyph glyph-name="parenleft" unicode="(" horiz-adv-x="325" 
d="M311 772q-36 -16 -54 -33q-14 -14 -29 -47q-21 -51 -30.5 -139t-9.5 -246q0 -200 15 -290q9 -59 25 -96q12 -30 29 -47q17 -15 54 -33h-34q-94 0 -138 40q-93 84 -93 426q0 223 42 343q17 49 51 83q42 40 138 40z" />
    <glyph glyph-name="parenright" unicode=")" horiz-adv-x="325" 
d="M14 -159q39 16 55 33.5t33 58.5q35 97 35 374q0 103 -3 172t-11 118q-6 50 -26 95q-12 31 -28 46.5t-55 33.5l18 1h17q93 0 137 -40q93 -87 93 -426q0 -231 -40 -344q-15 -46 -53 -82q-21 -20 -54 -30t-82 -10h-36z" />
    <glyph glyph-name="asterisk" unicode="*" horiz-adv-x="371" 
d="M22 573l109 21l-80 78l73 57l61 -94l57 94l72 -53l-77 -79l112 -31l-31 -85l-102 50l18 -112h-99l15 112l-102 -45z" />
    <glyph glyph-name="plus" unicode="+" 
d="M76 308v102h168v173h103v-173h175v-102h-175v-171h-103v171h-168z" />
    <glyph glyph-name="comma" unicode="," horiz-adv-x="235" 
d="M-22 -99q55 61 79 102t24 76q0 30 -29 66l78 -4q26 0 83 6q-15 -91 -39 -133q-20 -38 -96 -113h-100z" />
    <glyph glyph-name="hyphen" unicode="-" horiz-adv-x="333" 
d="M28 188v137q14 -15 39 -15h198q27 0 40 14v-135q-14 14 -38 14h-199q-26 0 -40 -15z" />
    <glyph glyph-name="period" unicode="." horiz-adv-x="194" 
d="M18 66q0 32 23 54.5t54 22.5q32 0 54 -23q23 -21 23 -54q0 -31 -23 -54q-21 -23 -54 -23q-31 0 -54 23t-23 54z" />
    <glyph glyph-name="slash" unicode="/" horiz-adv-x="459" 
d="M15 0l355 721h74l-353 -721h-76z" />
    <glyph glyph-name="zero" unicode="0" 
d="M27 360q0 127 48 234q62 138 223 138q59 0 104 -17q78 -28 123.5 -125.5t45.5 -239.5q0 -117 -48 -224q-63 -137 -225 -137q-61 0 -103 16q-79 30 -123.5 125.5t-44.5 229.5zM200 535q-23 -83 -23 -175q0 -195 76 -256q25 -19 45 -19q54 0 88.5 74.5t34.5 188.5
q0 207 -77 268q-25 19 -46 19q-26 0 -58 -30q-28 -29 -40 -70z" />
    <glyph glyph-name="one" unicode="1" 
d="M164 547q80 53 116 83t102 99v-627q0 -52 30 -102h-209q32 47 32 97v450h-71z" />
    <glyph glyph-name="two" unicode="2" 
d="M51 0l21 29l60 90l162 275q22 39 42.5 89t20.5 72q0 32 -24 54.5t-58 22.5q-85 0 -85 -106q0 -26 18 -82h-120q-14 47 -14 74q0 96 62 153.5t166 57.5q85 0 144 -49t59 -122q0 -84 -77 -201l-166 -254l82 -2q64 0 103 10q18 5 39.5 13.5t59.5 26.5q-20 -78 -28 -151h-467
z" />
    <glyph glyph-name="three" unicode="3" 
d="M45 66q41 59 64 123l25 -44q39 -57 107 -57q51 0 85 35.5t34 86.5q0 57 -40.5 94.5t-103.5 37.5l-24 -1l153 281l-29 1h-30q-62 0 -110 -9q-41 -6 -108 -31l3 76l-1 62h481q-27 -38 -46 -75l-120 -235q15 -7 22 -11.5t27 -17.5q74 -53 74 -163q0 -103 -70 -165.5
t-184 -62.5q-22 0 -43 1.5t-48 9.5q-56 15 -118 64z" />
    <glyph glyph-name="four" unicode="4" 
d="M34 344q34 28 63 64l198 251l28 39l9 23h138l-4 -27l-5 -48v-310q57 0 94 10l-2 -30l-1 -21q0 -7 1 -22t4 -36q-17 3 -36.5 5t-45.5 2h-14v-142q0 -51 30 -102h-209q30 48 30 101v144h-268q0 53 -10 99zM311 548l-154 -212h154v212z" />
    <glyph glyph-name="five" unicode="5" 
d="M52 53q28 55 49 124q34 -51 65 -70t73 -19q48 0 82 37t34 91q0 59 -39 96t-104 37q-45 0 -96 -26q5 43 5 77v202q0 56 -10 119h424q-24 -55 -40 -123q-111 27 -188 27l-48 -1v-189l18 1h18q88 0 148.5 -60.5t60.5 -151.5q0 -101 -69.5 -165.5t-181.5 -64.5
q-59 0 -97.5 11.5t-103.5 47.5z" />
    <glyph glyph-name="six" unicode="6" 
d="M295 415q38 11 63 11q72 0 123.5 -60.5t51.5 -144.5q0 -102 -64 -165.5t-168 -63.5q-52 0 -93 14t-76 45q-66 60 -66 153q0 49 15.5 92.5t63.5 127.5l97 172q36 64 46 88l7 37h202q-77 -91 -111 -148zM301 330q-39 0 -64 -37.5t-25 -94.5q0 -45 22 -76q23 -29 59 -29
q39 0 66 34.5t27 85.5q0 52 -23.5 84.5t-61.5 32.5z" />
    <glyph glyph-name="seven" unicode="7" 
d="M68 587q6 47 6 71l-4 63h484q-35 -58 -52 -102l-208 -523q-17 -43 -17 -82v-14h-200q44 62 73 130l200 497l-47 1q-76 0 -114 -7q-20 -3 -48 -10.5t-73 -23.5z" />
    <glyph glyph-name="eight" unicode="8" 
d="M168 376l-34 25q-58 50 -58 130t63.5 136.5t158.5 56.5q96 0 160 -55t64 -138q0 -43 -18 -80t-74 -75l34 -18q31 -23 56 -69q10 -21 16 -44t6 -47q0 -56 -31 -105q-63 -101 -219 -101q-102 0 -170 58q-33 29 -50 65.5t-17 82.5q0 51 24 96q17 34 34 48t55 34zM298 636
q-35 0 -57.5 -30.5t-22.5 -77.5q0 -110 80 -110q36 0 58 28t22 78q0 52 -22 82t-58 30zM298 333q-42 0 -68 -34.5t-26 -89.5q0 -58 26 -92.5t68 -34.5q41 0 67.5 34t26.5 89q0 30 -6 53t-20 40q-24 35 -68 35z" />
    <glyph glyph-name="nine" unicode="9" 
d="M303 303q-43 -10 -62 -10q-71 0 -123.5 60.5t-52.5 142.5q0 100 67.5 166.5t171.5 66.5q98 0 163 -60.5t65 -152.5q0 -90 -82 -230l-91 -154q-18 -31 -30 -55.5t-20 -44.5q-3 -6 -6 -32h-204q74 80 118 156zM303 626q-41 0 -66 -34t-25 -91q0 -51 21.5 -81t61.5 -30
q41 0 66 35q25 38 25 93q0 50 -21.5 79t-61.5 29z" />
    <glyph glyph-name="colon" unicode=":" horiz-adv-x="227" 
d="M36 66q0 32 22.5 54.5t53.5 22.5q33 0 55 -23q23 -21 23 -54q0 -32 -22.5 -54.5t-55.5 -22.5q-31 0 -54 22q-11 11 -16.5 24.5t-5.5 30.5zM37 404q0 32 21 55t54 23t55 -23q23 -21 23 -55q0 -32 -23 -55q-21 -23 -55 -23q-30 0 -53 23q-11 11 -16.5 24.5t-5.5 30.5z" />
    <glyph glyph-name="semicolon" unicode=";" horiz-adv-x="263" 
d="M-8 -99q59 65 81.5 104t22.5 74q0 28 -29 66l77 -4q26 0 83 6q-15 -91 -39 -133q-21 -40 -95 -113h-101zM65 404q0 33 22.5 55.5t54.5 22.5q33 0 56 -23q23 -21 23 -55q0 -31 -23.5 -54.5t-55.5 -23.5t-55 23q-11 11 -16.5 24.5t-5.5 30.5z" />
    <glyph glyph-name="less" unicode="&#x3c;" horiz-adv-x="210" 
d="M28 194v107l154 135v-105l-87 -83l87 -82v-103z" />
    <glyph glyph-name="equal" unicode="=" 
d="M44 237v102q13 -13 40 -13h428q27 0 42 12v-100q-12 12 -42 12h-429q-29 0 -39 -13zM44 384v101q14 -16 40 -16h428h14q8 0 13.5 2.5t14.5 12.5v-102q-14 12 -42 12h-428q-24 0 -40 -10z" />
    <glyph glyph-name="greater" unicode="&#x3e;" horiz-adv-x="211" 
d="M28 63v105l89 80l-88 81v103l154 -129v-108z" />
    <glyph glyph-name="question" unicode="?" horiz-adv-x="412" 
d="M77 68q0 32 22.5 55t55.5 23q30 0 53 -23t23 -55t-22.5 -54.5t-53.5 -22.5q-33 0 -56 22q-11 11 -16.5 24.5t-5.5 30.5zM14 571q10 57 10 82l-1 39q81 36 150 36q94 0 154 -55t60 -143v-14q0 -87 -83 -152l-87 -61q-30 -21 -44 -38q-11 -16 -22 -49q-31 53 -31 86
q0 43 61 94q44 35 61 63q8 15 12 29.5t4 35.5q0 42 -34 76t-77 34q-34 0 -60.5 -13t-72.5 -50z" />
    <glyph glyph-name="at" unicode="@" horiz-adv-x="852" 
d="M459 228q-8 -21 -20 -34q-35 -43 -82 -43q-26 0 -49 11q-42 18 -61.5 62t-19.5 117q0 57 28.5 120t75.5 98q40 28 81 28q66 0 90 -60l8 51h51l-49 -293q-3 -20 -3 -35q0 -7 0.5 -11.5t3.5 -15.5q9 -28 39 -28l13 2q22 6 54 43q61 69 61 186q0 111 -71 182t-180 71h-28
q-13 -3 -19 -4q-111 -15 -183.5 -105t-72.5 -215q0 -77 30 -143q39 -84 109.5 -130t151.5 -46q121 0 222 92q25 22 53 59l15 -50l-24 -29q-114 -123 -271 -123q-142 0 -239 90t-114 236l-2 49q0 218 184 326q86 49 185 49q133 0 222 -87t89 -218q0 -22 -1 -34t-6 -36
q-15 -76 -52 -129t-87 -74q-27 -10 -48 -10q-34 0 -57.5 18.5t-26.5 48.5v14zM290 292q0 -42 15.5 -66t45.5 -29q30 -4 53 18t47 86l17 70l4 18l5 34q1 10 1.5 27t1.5 30q-3 26 -21.5 43t-42.5 17q-16 0 -27 -5q-49 -19 -80 -109l-12 -48q-5 -24 -6 -41.5t-1 -44.5z" />
    <glyph glyph-name="A" unicode="A" horiz-adv-x="666" 
d="M-26 0q57 63 87 139l196 488q18 44 27 94h132q15 -68 25 -95l170 -475q24 -68 81 -151h-209l3 36q0 19 -2 32.5t-9 32.5l-41 118h-199l-40 -104q-14 -37 -14 -76l2 -39h-209zM338 565l-83 -247h158z" />
    <glyph glyph-name="B" unicode="B" horiz-adv-x="548" 
d="M44 0q27 54 27 101v521q0 49 -25 99h210q102 0 166 -49t64 -127q0 -48 -27.5 -88t-84.5 -76q6 -2 16.5 -6.5t20.5 -10.5q46 -21 75.5 -68.5t29.5 -99.5q0 -76 -55 -132q-33 -34 -74 -49t-105 -15h-238zM219 364v-281q93 0 123 43q22 33 22 80q0 61 -26.5 101.5
t-73.5 51.5zM219 634v-239q57 0 90 38.5t33 88.5q0 38 -21 71q-21 30 -52 37l-42 5z" />
    <glyph glyph-name="C" unicode="C" horiz-adv-x="638" 
d="M606 693l4 -146q-55 63 -95 84q-19 11 -44 17t-56 6q-95 0 -160 -85t-65 -211q0 -119 66.5 -199t167.5 -80q57 0 97.5 21.5t94.5 82.5l-20 -143q-61 -27 -97 -36q-19 -4 -46.5 -7t-55.5 -3q-161 0 -263 101t-102 261q0 159 110 266t277 107q82 0 187 -36z" />
    <glyph glyph-name="D" unicode="D" horiz-adv-x="629" 
d="M41 0q19 28 24.5 47.5t5.5 54.5v522q0 49 -29 97h162q144 0 263 -84q131 -93 131 -275q0 -165 -104.5 -263.5t-281.5 -98.5h-171zM219 638v-555q44 5 75.5 17t57.5 33q90 72 90 218q0 141 -77 221q-28 29 -58.5 42.5t-87.5 23.5z" />
    <glyph glyph-name="E" unicode="E" horiz-adv-x="484" 
d="M41 0q30 48 30 102v521q0 49 -29 98h403l-56 -124q-43 12 -87.5 20.5t-83.5 8.5v-210h197l-67 -117q-62 21 -130 30v-235q45 0 76.5 3t58.5 8q46 6 131 31l-63 -136h-380z" />
    <glyph glyph-name="F" unicode="F" horiz-adv-x="427" 
d="M43 721h402l-56 -123q-53 14 -83 19q-46 8 -88 8v-209h196l-66 -114q-27 8 -60 14.5t-70 11.5v-227q0 -44 30 -101h-205q28 50 28 102v522q0 48 -28 97z" />
    <glyph glyph-name="G" unicode="G" horiz-adv-x="735" 
d="M641 683v-139q-64 63 -110.5 86.5t-109.5 23.5q-100 0 -166 -82t-66 -208q0 -127 68 -207t174 -80q40 0 97 16v176q0 36 -30 96h203q-30 -56 -30 -96v-113q0 -51 15 -104q-26 -9 -78 -26q-39 -12 -60 -18q-67 -14 -143 -14q-165 0 -269 100.5t-104 260.5q0 161 112 267.5
t282 106.5q87 0 215 -46z" />
    <glyph glyph-name="H" unicode="H" horiz-adv-x="690" 
d="M41 0q18 30 24 48t6 54v522q0 49 -29 97h207q-31 -57 -31 -98v-207h253v207q0 42 -30 98h207q-30 -48 -30 -97v-522q0 -32 6 -52t25 -50h-207q29 55 29 102v216h-253v-216q0 -45 30 -102h-207z" />
    <glyph glyph-name="I" unicode="I" horiz-adv-x="290" 
d="M40 721h209q-31 -57 -31 -98v-522q0 -48 30 -101h-208q30 48 30 102v522q0 47 -30 97z" />
    <glyph glyph-name="J" unicode="J" horiz-adv-x="342" 
d="M3 132q42 -44 76 -44q21 0 31 13q16 16 16 93v430q0 48 -28 97h207q-30 -47 -30 -97v-439q0 -67 -15.5 -102.5t-56.5 -61t-89 -25.5l-17 1l-18 1h-23q-15 0 -39 -6z" />
    <glyph glyph-name="K" unicode="K" horiz-adv-x="644" 
d="M43 721h206q-30 -50 -30 -96v-225l176 221q26 35 37 100h229q-54 -31 -92 -77l-207 -252l206 -299q28 -42 46.5 -58t62.5 -35h-251l3 30q0 30 -23 63l-188 275v-266q0 -51 30 -102h-204q27 45 27 102v523q0 49 -28 96z" />
    <glyph glyph-name="L" unicode="L" horiz-adv-x="430" 
d="M41 721h207q-30 -60 -30 -97v-527q77 0 115 8t112 37l-45 -142h-358q5 8 13 23t11.5 28.5t3.5 51.5v521q0 53 -29 97z" />
    <glyph glyph-name="M" unicode="M" horiz-adv-x="835" 
d="M15 721h173v-10q0 -23 14 -40l215 -266l217 267l11 17q6 9 6 32h168l-56 -71v-549q0 -39 5 -54.5t27 -46.5h-199q18 27 24 48l4 54v379l-206 -252l-207 254v-381q0 -57 29 -102h-200q18 25 26 49l4 54v546z" />
    <glyph glyph-name="N" unicode="N" horiz-adv-x="739" 
d="M24 721h164q12 -48 34 -80l306 -438v421q0 52 -29 97h196q-27 -54 -27 -97v-521q0 -59 17 -103h-155l-316 455v-353q0 -54 27 -102h-196q17 27 21 44.5t4.5 33t0.5 24.5v532z" />
    <glyph glyph-name="O" unicode="O" horiz-adv-x="800" 
d="M32 363q0 159 104 262.5t264 103.5q157 0 262.5 -105.5t105.5 -266.5q0 -156 -106 -262q-53 -52 -118 -78t-147 -26q-157 0 -261 105.5t-104 266.5zM187 401q0 -130 70 -219q75 -98 202 -98q71 0 104 40q51 65 51 201q0 68 -18 123t-56 100q-73 88 -186 88
q-84 0 -123 -45q-44 -52 -44 -190z" />
    <glyph glyph-name="P" unicode="P" horiz-adv-x="495" 
d="M39 0q20 25 25.5 44.5t5.5 57.5v523q0 49 -30 96h196q119 0 189.5 -54.5t70.5 -146.5q0 -98 -69 -153t-197 -55h-12v-211q0 -51 27 -101h-206zM214 641v-293q69 0 99.5 45.5t30.5 102.5q0 102 -64 130q-24 9 -66 15z" />
    <glyph glyph-name="Q" unicode="Q" horiz-adv-x="800" 
d="M639 76q46 -56 94 -87q80 -50 182 -75q-60 -17 -83 -17q-51 0 -138.5 29t-162.5 89q-96 -21 -152 -21q-145 0 -246 108t-101 261q0 159 104 262q53 52 118 78t147 26q157 0 262.5 -105.5t105.5 -266.5q0 -89 -26 -146t-104 -135zM184 401v-18t2 -22q11 -120 88 -198.5
t184 -78.5q74 0 106 41q53 67 53 205q0 132 -76 220t-190 88q-84 0 -120 -42q-19 -24 -34 -80q-13 -59 -13 -115z" />
    <glyph glyph-name="R" unicode="R" horiz-adv-x="575" 
d="M40 0q18 30 24 48t6 54v523q0 50 -29 96h203q113 0 189 -59.5t76 -149.5q0 -119 -133 -177q70 -125 109 -181t123 -154h-138q-50 48 -82 83q-36 39 -56 65.5t-49.5 73t-64.5 106.5v-226q0 -52 28 -102h-206zM214 638v-275q72 9 106 46t34 95q0 46 -24.5 81t-65.5 45z" />
    <glyph glyph-name="S" unicode="S" horiz-adv-x="486" 
d="M424 697l5 -143q-91 77 -151 77q-41 0 -68 -26t-27 -64q0 -31 14 -51q18 -28 100 -78l66 -44q88 -68 88 -168q0 -65 -42 -121q-67 -85 -206 -85q-77 0 -152 30v151q46 -47 79 -65.5t73 -18.5q41 0 66.5 22.5t25.5 59.5q0 32 -21 60t-74 62l-68 47q-98 69 -98 177
q0 90 70.5 149.5t180.5 59.5q64 0 139 -31z" />
    <glyph glyph-name="T" unicode="T" horiz-adv-x="525" 
d="M-14 578l41 143h512l-35 -126q-46 20 -79 28q-19 4 -88 11v-532q0 -56 29 -102h-206q17 26 25 49l4 53v527q-70 0 -106 -11q-34 -8 -97 -40z" />
    <glyph glyph-name="U" unicode="U" horiz-adv-x="694" 
d="M40 721h204q-27 -54 -27 -97v-408q0 -126 118 -126q34 0 66 15t54 41.5t22 47.5v430q0 45 -29 97h205q-28 -53 -28 -97v-523q0 -51 27 -101h-180q10 30 10 58v12q-58 -44 -97.5 -60t-89.5 -16q-83 0 -145 47q-81 60 -81 200v383q0 23 -7 47.5t-22 49.5z" />
    <glyph glyph-name="V" unicode="V" 
d="M-54 721h212q-6 -24 -6 -38q0 -26 12 -64l141 -425l150 429q13 39 13 59q0 11 -7 39h190q-33 -28 -47.5 -49.5t-32.5 -71.5l-205 -600h-144l-195 602q-17 52 -30.5 72t-50.5 47z" />
    <glyph glyph-name="W" unicode="W" horiz-adv-x="795" 
d="M-37 721h206q-12 -32 -12 -56q0 -26 4 -42l94 -394l144 500l147 -508l93 403q6 26 6 50q0 19 -7 47h193q-34 -52 -57 -138l-152 -583h-121l-102 381l-98 -381h-119l-156 582q-15 62 -26 83q-9 22 -37 56z" />
    <glyph glyph-name="X" unicode="X" horiz-adv-x="603" 
d="M-22 721h212l-1 -14q0 -21 21 -62l96 -180l98 183q9 17 15 36.5t6 36.5h190q-52 -59 -95 -130l-137 -226l138 -229q50 -84 104 -136h-211l1 5v5q0 16 -2 25l-22 42l-94 172l-91 -171l-20 -43l-4 -35h-193q72 85 105 139l129 211l-147 242q-18 30 -42 62t-56 67z" />
    <glyph glyph-name="Y" unicode="Y" horiz-adv-x="509" 
d="M-49 721h211l-3 -28q0 -10 2 -18t9 -22l105 -222l106 222q10 23 10 37q0 11 -7 31h174q-50 -49 -87 -118l-145 -271v-231q0 -50 30 -101h-207q29 46 29 101v234l-142 270q-27 55 -41 71q-7 11 -16 20.5t-28 24.5z" />
    <glyph glyph-name="Z" unicode="Z" horiz-adv-x="525" 
d="M12 554l47 167h440l-285 -624h38q89 0 133 9.5t124 49.5l-45 -156h-442l286 622q-109 0 -160 -14q-47 -10 -136 -54z" />
    <glyph glyph-name="bracketleft" unicode="[" horiz-adv-x="283" 
d="M71 -176l8 487q0 59 -2 146q-5 217 -5 316h196v-85h-65q0 -122 -2 -202.5t-4 -187.5q0 -36 2.5 -175.5t2.5 -214.5l66 -1v-83h-197z" />
    <glyph glyph-name="backslash" unicode="\" horiz-adv-x="335" 
d="M38 720h108l126 -720h-108z" />
    <glyph glyph-name="bracketright" unicode="]" horiz-adv-x="283" 
d="M14 -176v85h66l6 389q-2 95 -3.5 205.5t-1.5 185.5h-66v84h197q0 -110 -2 -203q-6 -278 -6 -285q0 -81 1.5 -143t3.5 -155.5t2 -162.5h-197z" />
    <glyph glyph-name="asciicircum" unicode="^" horiz-adv-x="281" 
d="M0 549l80 126h130l71 -126h-77l-63 65l-62 -65h-79z" />
    <glyph glyph-name="underscore" unicode="_" horiz-adv-x="471" 
d="M38 -36v36h360v-36h-360z" />
    <glyph glyph-name="grave" unicode="`" horiz-adv-x="302" 
d="M17 677h126l75 -129h-70z" />
    <glyph glyph-name="a" unicode="a" horiz-adv-x="478" 
d="M74 379q17 52 24 98q76 28 147 28q170 0 170 -139v-268q0 -56 24 -98h-154l4 54q-22 -15 -74 -62h-14q-44 0 -79.5 8t-64.5 41q-27 33 -27 78q0 68 54.5 106t133.5 60q44 12 55.5 23.5t11.5 48.5q0 72 -75 72q-18 0 -26.5 -1t-22.5 -7q-27 -9 -87 -42zM285 112v115h-72
q-56 0 -56 -77q0 -82 72 -82q56 0 56 44z" />
    <glyph glyph-name="b" unicode="b" horiz-adv-x="546" 
d="M38 721h177q-24 -56 -24 -135v-172q31 32 64 78q62 12 90 12q73 0 122 -64t49 -161q0 -160 -124 -238q-41 -26 -76 -34q-16 -3 -45 -5t-69 -2h-163q24 42 24 98v488v15v13q0 42 -4 57q-3 18 -21 50zM191 361v-287q30 -6 49 -6q66 0 107 54t41 140q0 71 -31 117t-78 46
q-31 0 -59.5 -22.5t-28.5 -41.5z" />
    <glyph glyph-name="c" unicode="c" horiz-adv-x="450" 
d="M418 490v-23l-1 -16q0 -28 6 -72l-24 21q-47 38 -95 38q-63 0 -104.5 -50.5t-41.5 -130.5q0 -84 46 -136t120 -52l37 2q32 6 77 25q-28 -46 -48 -92q-71 -12 -108 -12q-114 0 -183 66t-69 177q0 120 79.5 195t207.5 75q44 0 101 -15z" />
    <glyph glyph-name="d" unicode="d" horiz-adv-x="555" 
d="M363 490v108v14q0 44 -3 62t-19 47h177q-16 -34 -21 -56l-4 -67v-500q0 -40 3.5 -56.5t20.5 -41.5h-154l3 64q-34 -40 -64 -55t-75 -15q-88 0 -142.5 61.5t-54.5 161.5q0 120 76.5 203t188.5 83q33 0 68 -13zM363 143v242q-38 47 -88 47q-77 0 -101 -54q-22 -57 -22 -114
q0 -78 39.5 -132t99.5 -54q32 0 58 25q14 14 14 40z" />
    <glyph glyph-name="e" unicode="e" horiz-adv-x="472" 
d="M442 232h-276q0 -88 45 -128q34 -29 83 -29q55 0 143 47q-29 -54 -46 -103q-68 -27 -123 -27q-234 0 -234 249q0 124 59 194t162 70q89 0 138.5 -57t49.5 -159zM174 355l-5 -54h164v13q0 126 -79 126q-65 0 -80 -85z" />
    <glyph glyph-name="f" unicode="f" horiz-adv-x="285" 
d="M12 434q24 21 56 63v64q0 76 45.5 121.5t126.5 45.5q38 0 78 -17q-7 -24 -10 -37.5t-10 -54.5q-12 20 -26 30t-32 10q-42 0 -42 -65v-97h97v-63h-97v-337q0 -40 3.5 -55.5t19.5 -41.5h-178q6 11 11.5 23t9.5 25.5t4 48.5v337h-56z" />
    <glyph glyph-name="g" unicode="g" horiz-adv-x="493" 
d="M38 -35q53 22 92 61q-49 6 -69.5 20.5t-20.5 43.5l2 30q58 18 109 56q-112 33 -112 149q0 81 59 131t157 50q22 0 39 -1t36.5 -5.5t54.5 -30.5h120l-2 -25l2 -26h-84q30 -45 30 -90q0 -69 -53 -118t-130 -49q-10 0 -28 1t-41 4q-30 -24 -30 -40q0 -23 44 -23h13l69 -1h40
q20 -3 31 -4q110 0 110 -101q0 -72 -70 -118.5t-178 -46.5q-47 0 -102 11t-75 37q-13 16 -13 51v34zM187 23h-14q-19 -38 -19 -60q0 -52 84 -52q48 0 78.5 18.5t30.5 48.5q0 33 -35 39t-125 6zM166 352q0 -17 2 -23q6 -44 37 -74q33 -28 75 -28q41 0 41 79q0 60 -26.5 98.5
t-67.5 38.5q-61 0 -61 -91z" />
    <glyph glyph-name="h" unicode="h" horiz-adv-x="532" 
d="M38 0q25 44 25 98v489q0 58 -24 108q94 11 176 34q-24 -72 -24 -132v-13l7 -169q26 27 60 75q11 4 29.5 9t41.5 5q141 0 141 -138v-269q0 -40 3.5 -56t20.5 -41h-177q24 42 24 98v266q0 62 -60 62q-25 0 -43 -11l-30 -24q-15 -14 -17 -27v-266q0 -50 24 -98h-177z" />
    <glyph glyph-name="i" unicode="i" horiz-adv-x="254" 
d="M39 0q24 45 24 98v311q0 43 -24 88h176q-24 -56 -24 -89v-311q0 -49 24 -97h-176zM52 635q0 32 22 54t54 22t54.5 -21.5t22.5 -54.5q0 -32 -22.5 -54.5t-54.5 -22.5t-54 22q-11 11 -16.5 24.5t-5.5 30.5z" />
    <glyph glyph-name="j" unicode="j" horiz-adv-x="256" 
d="M0 -159q21 24 32 41q33 54 33 156v370q0 45 -24 89h177q-24 -45 -24 -89v-346q0 -62 -17 -116.5t-89 -104.5h-88zM54 636q0 30 22 53q11 11 24.5 16.5t30.5 5.5q30 0 52.5 -22t22.5 -53q0 -32 -22 -54.5t-53 -22.5t-54 23t-23 54z" />
    <glyph glyph-name="k" unicode="k" horiz-adv-x="479" 
d="M37 0q11 21 18 46.5t7 51.5v489v14v11q0 40 -4 55q-3 21 -21 54h177q-5 -12 -11 -28t-9 -27q-2 -14 -3 -30t-1 -49v-293l87 121q10 13 16 23t9 18t5 18t2 23h160q-47 -41 -72 -74l-102 -134l122 -186q30 -46 60 -82l21 -21h-188l4 22q0 19 -17 47l-110 184v-155
q0 -41 4.5 -57t22.5 -41h-177z" />
    <glyph glyph-name="l" unicode="l" horiz-adv-x="254" 
d="M38 0q17 28 21 47l4 51v489v15v13q0 43 -4 56q-3 18 -19 50h175q-24 -56 -24 -135v-489q0 -57 25 -97h-178z" />
    <glyph glyph-name="m" unicode="m" horiz-adv-x="777" 
d="M37 0q25 44 25 98v311q0 47 -24 88h153v-81q32 32 60 74q39 15 72 15q35 0 63 -11q47 -18 69 -80q34 37 57 76q40 14 71 14q132 0 132 -133v-275q0 -38 3.5 -54.5t20.5 -41.5h-177q24 48 24 98v270q0 58 -54 58q-27 0 -54 -20t-27 -37v-271q0 -53 24 -98h-174
q6 11 11.5 23t8.5 21l4 53v268q0 61 -54 61q-30 0 -48 -17l-20 -18l-12 -17v-276q0 -53 24 -98h-178z" />
    <glyph glyph-name="n" unicode="n" horiz-adv-x="533" 
d="M37 0q25 44 25 98v311q0 41 -24 88h153v-85q33 31 65 78q40 14 77 14q137 0 137 -130v-277q0 -54 25 -97h-176q23 46 23 98v266q0 62 -63 62q-33 0 -54 -21l-20 -20l-14 -20v-267q0 -55 23 -98h-177z" />
    <glyph glyph-name="o" unicode="o" horiz-adv-x="562" 
d="M30 238q0 118 73.5 192t190.5 74q68 0 118.5 -27t85 -92t34.5 -136q0 -113 -71 -185t-183 -72q-107 0 -177.5 70t-70.5 176zM177 407q-20 -20 -20 -90v-10q0 -124 59 -186q48 -51 105 -51q51 0 67 35q13 29 13 91q0 74 -20 120q-14 35 -35 57q-48 54 -104 54
q-45 0 -65 -20z" />
    <glyph glyph-name="p" unicode="p" horiz-adv-x="539" 
d="M38 -159q25 44 25 101v467q0 42 -23 84l-2 4h153v-73q38 46 68.5 63t72.5 17q78 0 127.5 -70t49.5 -179q0 -111 -54.5 -188t-134.5 -77q-46 0 -129 51v-100q0 -58 24 -100h-177zM215 394q-24 -17 -24 -24v-252q0 -24 36 -42q9 -4 16.5 -6t18.5 -2q50 0 82 48.5t32 125.5
q0 76 -28.5 124.5t-72.5 48.5q-30 0 -60 -21z" />
    <glyph glyph-name="q" unicode="q" horiz-adv-x="532" 
d="M303 11q-48 -17 -86 -17q-88 0 -137.5 57.5t-49.5 159.5q0 135 89 210.5t249 75.5h127q-20 -52 -20 -89v-467q0 -41 3 -58.5t20 -41.5h-178q4 8 12 25q5 12 9 25t4 50v125q-25 -25 -42 -55zM345 143v279l-61 5q-53 0 -88 -52.5t-35 -134.5q0 -74 31.5 -118t84.5 -44
q68 0 68 65z" />
    <glyph glyph-name="r" unicode="r" horiz-adv-x="336" 
d="M38 0q25 50 25 97v311q0 38 -24 89h152v-88q20 38 36 52q21 18 56 31q25 7 36 7t30 -5q-8 -33 -13.5 -64.5t-5.5 -60.5q-41 33 -72 33q-29 0 -48 -20.5t-19 -53.5v-231q0 -50 24 -97h-177z" />
    <glyph glyph-name="s" unicode="s" horiz-adv-x="383" 
d="M337 484l-1 -40q0 -10 1 -25.5t4 -33.5l-33 26q-46 32 -86 32q-26 0 -44.5 -14.5t-18.5 -38.5q0 -28 44 -62l46 -34q69 -51 87.5 -78t18.5 -74q0 -57 -37 -98q-47 -52 -149 -52q-58 0 -130 24l1 53v26v24q-2 10 -2 14q33 -42 67 -62q32 -17 60 -17t45.5 16.5t17.5 39.5
q0 34 -52 68q-81 51 -111.5 90.5t-30.5 91.5q0 69 48.5 107.5t136.5 38.5q53 0 118 -22z" />
    <glyph glyph-name="t" unicode="t" horiz-adv-x="318" 
d="M-2 434q71 52 107 85q30 29 92 103v-125h118v-63h-119v-315q0 -55 56 -55q41 0 81 25q-22 -41 -36 -80q-51 -15 -99 -15q-61 0 -96 28.5t-35 78.5v333h-69z" />
    <glyph glyph-name="u" unicode="u" horiz-adv-x="529" 
d="M36 497h177q-10 -25 -16 -48.5t-6 -39.5v-271q0 -45 20.5 -57.5t50.5 -12.5q18 0 30 4t25 16q19 17 19 55v266q0 47 -22 88h177q-25 -53 -25 -88v-311q0 -38 4 -53.5t21 -44.5h-155v74l-52 -66q-47 -14 -76 -14q-68 0 -107 32.5t-39 89.5v293q0 46 -26 88z" />
    <glyph glyph-name="v" unicode="v" horiz-adv-x="429" 
d="M-21 497h178q-7 -21 -7 -31q0 -12 5 -27l72 -239l74 242l4 25q0 13 -7 30h152q-36 -48 -51 -91l-133 -406h-104l-130 408q-16 53 -53 89z" />
    <glyph glyph-name="w" unicode="w" horiz-adv-x="670" 
d="M1 497h171q-6 -18 -8 -34q0 -17 5 -31l54 -259l91 324h75l87 -323l60 255l5 38q0 16 -5 30h132q-27 -44 -43 -110l-92 -387h-106l-86 331l-93 -331h-111l-86 377q-15 72 -50 120z" />
    <glyph glyph-name="x" unicode="x" horiz-adv-x="463" 
d="M-13 0q44 43 68 80l107 170l-94 158q-30 49 -71 89h180l-4 -18q0 -11 12 -35l53 -96l50 93q14 26 14 37q0 8 -4 19h156q-40 -37 -69 -81l-94 -146l114 -190q30 -49 47 -65l24 -15h-182l2 17q0 13 -10 32l-70 123l-70 -123q-12 -21 -12 -31l4 -18h-151z" />
    <glyph glyph-name="y" unicode="y" horiz-adv-x="479" 
d="M-24 497h183l-2 -21q0 -13 11 -41l90 -226l85 231q5 14 5 19v8q0 10 -5 30h160q-39 -50 -66 -112l-155 -376q-13 -34 -26 -58.5t-24 -38.5q-21 -30 -74 -71h-110q62 57 84 92q23 32 62 125l-143 328q-30 68 -75 111z" />
    <glyph glyph-name="z" unicode="z" horiz-adv-x="396" 
d="M11 0q23 31 40 67l159 361l-52 2q-58 0 -133 -41q15 50 24 108h336q-27 -33 -51 -87l-149 -340h18l19 -1q50 0 79 8q16 3 32 8t46 18q-9 -25 -15.5 -48.5t-12.5 -54.5h-340z" />
    <glyph glyph-name="braceleft" unicode="{" horiz-adv-x="366" 
d="M38 360q27 0 47 21q18 21 18 51v321q0 85 89 85h109v-65h-13q-33 0 -45 -11.5t-12 -42.5v-272q0 -33 -22.5 -57.5t-57.5 -29.5q14 0 27 -7q53 -23 53 -80v-272q0 -30 12 -42t45 -12h13v-65h-109q-89 0 -89 85v321q0 31 -19 51.5t-46 20.5z" />
    <glyph glyph-name="bar" unicode="|" horiz-adv-x="199" 
d="M38 0v720h108v-720h-108z" />
    <glyph glyph-name="braceright" unicode="}" horiz-adv-x="366" 
d="M38 -118v65h12q33 0 45 11.5t12 42.5v272q0 34 23 57.5t57 29.5q-34 3 -57 28t-23 59v272q0 30 -12 42t-45 12h-12v65h108q90 0 90 -85v-321q0 -30 18.5 -51t46.5 -21q-27 0 -47 -21q-18 -21 -18 -51v-321q0 -85 -90 -85h-108z" />
    <glyph glyph-name="asciitilde" unicode="~" horiz-adv-x="356" 
d="M0 775q8 62 32 88.5t74 26.5q38 0 93 -14q36 -9 47 -9q20 0 23 19h87q-6 -54 -25 -79q-24 -33 -76 -33q-22 0 -50 5q-29 7 -46 11l-42 7q-15 0 -19.5 -3.5t-7.5 -18.5h-90z" />
    <glyph glyph-name="quotesinglbase" unicode="&#x201a;" horiz-adv-x="235" 
d="M-22 -99q55 61 79 102t24 76q0 30 -29 66l78 -4q26 0 83 6q-15 -91 -39 -133q-20 -38 -96 -113h-100z" />
    <glyph glyph-name="florin" unicode="&#x192;" horiz-adv-x="405" 
d="M-72 -214q17 44 30 92q21 -39 53 -39q44 0 51 65l55 532h-54q32 27 62 62l8 63q9 79 58 123.5t130 44.5q37 0 79 -19q-16 -37 -29 -91q-25 40 -54 40q-41 0 -50 -65l-10 -97h97l-7 -62h-98l-53 -498q-7 -75 -59 -121t-134 -46q-37 0 -75 16z" />
    <glyph glyph-name="quotedblbase" unicode="&#x201e;" horiz-adv-x="430" 
d="M-3 -99q55 61 80 103q22 41 22 75q0 30 -29 66l78 -4q27 0 83 6q-15 -93 -38 -133q-20 -38 -96 -113h-100zM174 -99q55 61 79 102t24 76q0 28 -29 66l77 -4q28 0 84 6q-15 -91 -39 -133q-20 -38 -96 -113h-100z" />
    <glyph glyph-name="ellipsis" unicode="&#x2026;" horiz-adv-x="996" 
d="M96 72q0 32 24.5 57.5t59.5 25.5q33 0 58 -24t25 -59q0 -33 -24 -58t-59 -25q-34 0 -59 24t-25 59zM429 72q0 33 24.5 58.5t58.5 25.5q35 0 60 -25t25 -59q0 -35 -24.5 -59.5t-60.5 -24.5q-32 0 -59 24q-24 24 -24 60zM749 72q0 33 24.5 58.5t59.5 25.5q34 0 59 -25
t25 -59q0 -33 -25 -58.5t-59 -25.5t-59 24t-25 60z" />
    <glyph glyph-name="dagger" unicode="&#x2020;" horiz-adv-x="675" 
d="M22 350l3 98l-1 66q117 -24 228 -24h28v30v20v16v14v11q0 18 -1 34t-4 29q-4 42 -24 132l90 -7l75 4q-14 -84 -19 -138q0 -36 -1 -73.5t-2 -71.5h24q113 0 235 24l-5 -90l3 -75q-79 17 -120 21l-114 4h-25v-29q0 -71 2.5 -162t2.5 -93q0 -48 10.5 -146t15.5 -149
q-60 6 -91 6h-30t-54 -4q9 85 18 166t9 124q0 34 2.5 122.5t2.5 125.5v39h-22q-114 0 -236 -24z" />
    <glyph glyph-name="daggerdbl" unicode="&#x2021;" horiz-adv-x="752" 
d="M726 581l-29 -61q-83 102 -230 102q-91 0 -161 -53t-95 -137h445l-30 -63h-429l-2 -33l2 -30h400l-30 -63h-356q27 -89 98 -140.5t168 -51.5q137 0 220 99v-85q-97 -77 -225 -77q-122 0 -213.5 68.5t-118.5 186.5h-113l30 63h71l-1 31l1 32h-101l30 63h83
q27 117 119.5 185t217.5 68q72 0 140.5 -27.5t108.5 -76.5z" />
    <glyph glyph-name="circumflex" unicode="&#x2c6;" horiz-adv-x="281" 
d="M0 549l80 126h130l71 -126h-77l-63 65l-62 -65h-79z" />
    <glyph glyph-name="perthousand" unicode="&#x2030;" horiz-adv-x="1111" 
d="M32 548q0 184 167 184q162 0 162 -190q0 -178 -167 -178q-162 0 -162 184zM55 0l542 721h87l-541 -721h-88zM378 173q0 184 168 184q161 0 161 -189q0 -179 -166 -179q-163 0 -163 184zM750 173q0 184 167 184q162 0 162 -189q0 -88 -43.5 -133.5t-123.5 -45.5
q-79 0 -120.5 47.5t-41.5 136.5zM543 295q-49 0 -49 -122t49 -122q48 0 48 122t-48 122zM197 670q-49 0 -49 -122t49 -122q47 0 47 122t-47 122zM915 295q-49 0 -49 -122t49 -122q48 0 48 122t-48 122z" />
    <glyph glyph-name="Scaron" unicode="&#x160;" horiz-adv-x="486" 
d="M424 697l5 -143q-91 77 -151 77q-41 0 -68 -26t-27 -64q0 -31 14 -51q18 -28 100 -78l66 -44q88 -68 88 -168q0 -65 -42 -121q-67 -85 -206 -85q-77 0 -152 30v151q46 -47 79 -65.5t73 -18.5q41 0 66.5 22.5t25.5 59.5q0 32 -21 60t-74 62l-68 47q-98 69 -98 177
q0 90 70.5 149.5t180.5 59.5q64 0 139 -31zM127 934h77l64 -65l61 65h79l-80 -125h-130z" />
    <glyph glyph-name="guilsinglleft" unicode="&#x2039;" horiz-adv-x="210" 
d="M28 194v107l154 135v-105l-87 -83l87 -82v-103z" />
    <glyph glyph-name="OE" unicode="&#x152;" horiz-adv-x="933" 
d="M519 701v20h375l-55 -126q-46 13 -88 20.5t-84 7.5v-207h197l-65 -120q-58 19 -132 29v-227q42 0 75 2.5t61 7.5q46 6 131 31l-64 -139h-354l3 16q-69 -22 -121 -22q-158 0 -263 102q-51 51 -77 116t-26 146q0 153 100.5 262t243.5 109q49 0 143 -28zM451 82q33 0 68 17
v375q0 33 -38 81l-35 44q-33 35 -97 35q-24 0 -43 -4t-45 -16q-18 -7 -23 -14l-13 -18q-41 -76 -41 -170q0 -169 105 -262q77 -68 162 -68z" />
    <glyph glyph-name="quoteleft" unicode="&#x2018;" horiz-adv-x="258" 
d="M25 481q18 88 41 128q11 21 33.5 48.5t58.5 63.5h100q-101 -115 -101 -175q0 -30 28 -64l-79 6q-22 0 -81 -7z" />
    <glyph glyph-name="quoteright" unicode="&#x2019;" horiz-adv-x="259" 
d="M0 477q51 56 77 99.5t26 75.5q0 26 -29 70q51 -6 78 -6q21 0 83 7q-15 -91 -38 -131.5t-98 -114.5h-99z" />
    <glyph glyph-name="quotedblleft" unicode="&#x201c;" horiz-adv-x="435" 
d="M25 481q18 88 41 128q11 21 33.5 48.5t58.5 63.5h100q-101 -115 -101 -175q0 -30 28 -64l-79 6q-22 0 -81 -7zM202 481q18 88 41 128q11 21 33.5 48.5t58.5 63.5h100q-102 -116 -102 -175q0 -13 7.5 -29.5t21.5 -34.5l-79 6q-22 0 -81 -7z" />
    <glyph glyph-name="quotedblright" unicode="&#x201d;" horiz-adv-x="437" 
d="M14 477q56 62 79.5 101.5t23.5 74.5q0 25 -29 69l78 -5q26 0 82 6q-15 -91 -39 -133q-21 -40 -95 -113h-100zM191 477q56 62 79.5 101.5t23.5 74.5q0 24 -30 69l80 -5q27 0 81 6q-15 -91 -39 -133q-20 -38 -96 -113h-99z" />
    <glyph glyph-name="bullet" unicode="&#x2022;" horiz-adv-x="227" 
d="M36 293q0 32 22.5 55t55.5 23q32 0 54.5 -23t22.5 -55t-23 -55q-21 -23 -54 -23t-56 23q-11 11 -16.5 24.5t-5.5 30.5z" />
    <glyph glyph-name="endash" unicode="&#x2013;" 
d="M44 309v103q13 -13 40 -13h428q28 0 42 12v-102q-13 13 -42 13h-429q-27 0 -39 -13z" />
    <glyph glyph-name="emdash" unicode="&#x2014;" horiz-adv-x="996" 
d="M30 297v119h936v-119h-936z" />
    <glyph glyph-name="tilde" unicode="&#x2dc;" horiz-adv-x="314" 
d="M0 551q11 108 94 108q32 0 82 -14l41 -7q17 0 20 18h77q-12 -107 -89 -107q-27 0 -84 15l-38 7q-20 0 -24 -20h-79z" />
    <glyph glyph-name="trademark" unicode="&#x2122;" horiz-adv-x="773" 
d="M38 662v58h219v-59l-77 1v-302h-66v302h-76zM245 360l64 365h51l83 -203q8 -20 13 -39.5t5 -35.5l2 21q2 13 5 25t11 29l83 203h51l64 -365h-64l-35 224v41q-2 -15 -11 -41l-7 -22l-83 -206h-31l-91 228l-11 41q1 -5 1 -15v-15v-11l-1 -13l-2 -10l-33 -201h-64z" />
    <glyph glyph-name="scaron" unicode="&#x161;" horiz-adv-x="383" 
d="M337 484l-1 -40q0 -10 1 -25.5t4 -33.5l-33 26q-46 32 -86 32q-26 0 -44.5 -14.5t-18.5 -38.5q0 -28 44 -62l46 -34q69 -51 87.5 -78t18.5 -74q0 -57 -37 -98q-47 -52 -149 -52q-58 0 -130 24l1 53v26v24q-2 10 -2 14q33 -42 67 -62q32 -17 60 -17t45.5 16.5t17.5 39.5
q0 34 -52 68q-81 51 -111.5 90.5t-30.5 91.5q0 69 48.5 107.5t136.5 38.5q53 0 118 -22zM76 675h77l64 -65l61 65h79l-80 -125h-130z" />
    <glyph glyph-name="guilsinglright" unicode="&#x203a;" horiz-adv-x="211" 
d="M28 63v105l89 80l-88 81v103l154 -129v-108z" />
    <glyph glyph-name="oe" unicode="&#x153;" horiz-adv-x="828" 
d="M464 429q34 46 64.5 61t93.5 15q79 0 128.5 -57.5t49.5 -151.5l-2 -62h-264q0 -39 9 -72q9 -40 38 -63t70 -23q54 0 143 46q-27 -50 -45 -103q-66 -27 -122 -27q-69 0 -100 13t-71 61q-49 -46 -83 -60t-91 -14q-112 0 -182 69t-70 184q0 111 72 185.5t183 74.5
q36 0 59.5 -3t41.5 -11q34 -14 78 -62zM535 303h154v22q0 114 -72 114q-44 0 -65 -48q-7 -22 -17 -88zM177 409q-19 -19 -19 -83v-20q0 -106 44 -168t120 -62q55 0 66 33q11 38 11 117q0 81 -45.5 139.5t-110.5 58.5q-24 0 -45 -7z" />
    <glyph glyph-name="Ydieresis" unicode="&#x178;" horiz-adv-x="509" 
d="M138 869q0 23 16.5 39.5t39.5 16.5q24 0 41 -17q17 -15 17 -40q0 -24 -17 -41q-15 -17 -41 -17q-23 0 -39.5 17.5t-16.5 41.5zM307 868q0 24 17 40.5t41 16.5q23 0 39 -17q17 -15 17 -39q0 -25 -17 -42q-15 -17 -39 -17q-25 0 -41.5 17.5t-16.5 40.5zM-49 721h211l-3 -28
q0 -10 2 -18t9 -22l105 -222l106 222q10 23 10 37q0 11 -7 31h174q-50 -49 -87 -118l-145 -271v-231q0 -50 30 -101h-207q29 46 29 101v234l-142 270q-27 55 -41 71q-7 11 -16 20.5t-28 24.5z" />
    <glyph glyph-name="nonbreakingspace" unicode="&#xa0;" horiz-adv-x="290" 
 />
    <glyph glyph-name="exclamdown" unicode="&#xa1;" horiz-adv-x="246" 
d="M45 655q0 32 23 54.5t55 22.5t54 -23q23 -21 23 -54q0 -32 -23 -55q-21 -23 -54 -23q-32 0 -55 23t-23 55zM43 0q16 70 16 145l-2 76l-1 76q0 78 10.5 117t56.5 91q45 -51 58 -98q9 -32 9 -110l-2 -76l-2 -76q0 -37 4 -73.5t13 -71.5h-160z" />
    <glyph glyph-name="cent" unicode="&#xa2;" horiz-adv-x="446" 
d="M223 486v77h65v-65l45 3q19 0 42.5 -4t39.5 -7l-1 -39q0 -13 1 -31.5t4 -40.5l-24 21q-52 38 -92 38q-59 0 -104 -52q-21 -26 -32 -56.5t-11 -68.5q0 -86 44.5 -139t116.5 -53h16h11q7 2 10 2q32 5 80 25q-31 -50 -48 -92q-19 -4 -46 -7t-52 -3v-82h-65v85q-64 17 -92 33
q-47 26 -77 82q-28 58 -28 123q0 70 36 138q27 52 59.5 74t101.5 39z" />
    <glyph glyph-name="sterling" unicode="&#xa3;" horiz-adv-x="530" 
d="M25 268q6 15 13.5 37t11.5 38h46q-51 110 -51 183q0 93 59 148t154 55q27 0 49 -4t50 -16q52 -20 75 -48.5t46 -94.5q-68 -22 -124 -57l1 34q0 42 -27.5 72.5t-68.5 30.5q-30 0 -54 -27q-10 -13 -16 -29t-6 -35q0 -48 73 -212h189q-15 -34 -24 -75h-153l7 -46
q0 -30 -13 -59q-9 -23 -47 -71l105 -7q67 0 188 50q-18 -67 -27 -135h-441q29 25 50 50q51 62 51 140q0 31 -17 78h-99z" />
    <glyph glyph-name="currency" unicode="&#xa4;" horiz-adv-x="713" 
d="M560 268h-288q23 -87 83 -138t140 -51q57 0 97.5 21.5t94.5 82.5l-20 -143q-61 -27 -97 -36q-19 -4 -46.5 -7t-55.5 -3q-137 0 -233 74.5t-123 199.5h-85l31 73h45v15l1 24h-77l31 73h57q30 123 133 199.5t242 76.5q82 0 187 -36l4 -146q-55 63 -95 84q-19 11 -44 17
t-56 6q-77 0 -134.5 -54.5t-79.5 -146.5h368l-31 -73h-347l-1 -22v-17h330z" />
    <glyph glyph-name="yen" unicode="&#xa5;" horiz-adv-x="688" 
d="M19 348v57h209l-106 200q-28 54 -42 72q-8 11 -21 24q-1 1 -21 20h211l-4 -15l-1 -13q0 -10 2 -18t9 -22l105 -222l107 222q10 23 10 37q0 11 -7 31h174q-52 -52 -87 -118l-103 -198h213v-57h-246l-8 -16v-21h254v-58h-254v-152q0 -51 28 -101h-206q30 48 30 101v154
h-244v57h244v23l-9 13h-237z" />
    <glyph glyph-name="section" unicode="&#xa7;" horiz-adv-x="584" 
d="M129 490q-36 27 -48.5 49.5t-12.5 63.5q0 77 61 123t163 46q123 0 194 -67q26 -24 36 -51t16 -81h-116q-4 53 -30 81q-36 41 -103 41q-39 0 -66.5 -20.5t-27.5 -52.5q0 -28 15.5 -46t64.5 -40l149 -69q127 -59 127 -177q0 -49 -20.5 -84t-74.5 -76q36 -27 48.5 -48.5
t12.5 -60.5q0 -84 -62.5 -133t-170.5 -49q-135 0 -203 78q-32 39 -41 132l117 -5q0 -58 36 -97q33 -35 92 -35q46 0 75.5 24.5t29.5 62.5q0 42 -64 73l-161 76q-133 63 -133 178q0 45 20.5 79.5t76.5 84.5zM369 354l-164 80q-58 -49 -58 -88q0 -53 57 -80l179 -83
q55 40 55 83q0 53 -69 88z" />
    <glyph glyph-name="dieresis" unicode="&#xa8;" horiz-adv-x="226" 
d="M-28 610q0 23 17 39q15 17 39 17t41 -17q17 -15 17 -40q0 -24 -17 -41q-15 -17 -41 -17q-23 0 -39.5 17t-16.5 42zM141 609q0 24 17 40.5t41 16.5q23 0 39 -17q17 -15 17 -39q0 -25 -17 -42q-15 -17 -39 -17q-25 0 -41.5 17.5t-16.5 40.5z" />
    <glyph glyph-name="copyright" unicode="&#xa9;" horiz-adv-x="932" 
d="M58 361q0 153 109 262.5t264 109.5t264 -109t109 -263q0 -155 -109 -264.5t-264 -109.5t-264 110t-109 264zM117 361q0 -133 92 -226t222 -93q129 0 221.5 93.5t92.5 224.5t-91.5 225t-222.5 94q-129 0 -221.5 -93.5t-92.5 -224.5zM598 538l-37 -53q-49 40 -109 40
q-59 0 -105 -39t-56 -100l-2 -30q0 -70 46.5 -118t115.5 -48q68 0 109 41l37 -54q-33 -26 -68.5 -39.5t-77.5 -13.5q-50 0 -92 15.5t-77 48.5q-68 66 -68 164q0 23 4 46.5t13 46.5q24 66 83.5 106.5t131.5 40.5q84 0 152 -54z" />
    <glyph glyph-name="ordfeminine" unicode="&#xaa;" horiz-adv-x="483" 
d="M48 330h361v-77h-361v77zM324 659v61h84l1 -342h-86v65l-3 -7q-32 -66 -118 -66l-33 3q-56 10 -93.5 58t-37.5 114q0 79 48 133t119 54q72 0 110 -57l5 -8zM125 550q0 -39 21.5 -67.5t60.5 -36.5q14 -2 20 -2q31 0 55 18q32 23 41 67q2 14 2 21q0 6 -2 22q-6 37 -33.5 61
t-65.5 24q-42 0 -70.5 -31.5t-28.5 -75.5z" />
    <glyph glyph-name="guillemotleft" unicode="&#xab;" horiz-adv-x="374" 
d="M28 194v107l154 135v-105l-87 -83l87 -82v-103zM192 194v107l154 135v-105l-88 -83l88 -82v-103z" />
    <glyph glyph-name="logicalnot" unicode="&#xac;" horiz-adv-x="653" 
d="M38 360v108h528v-252h-84v144h-444z" />
    <glyph glyph-name="registered" unicode="&#xae;" horiz-adv-x="932" 
d="M58 361q0 153 109 262.5t264 109.5t264 -109t109 -263q0 -155 -109 -264.5t-264 -109.5t-264 110t-109 264zM117 361q0 -133 92 -226t222 -93q129 0 221.5 93.5t92.5 224.5t-91.5 225t-222.5 94q-129 0 -221.5 -93.5t-92.5 -224.5zM306 140v449h121q70 0 103 -26
q46 -35 46 -103q0 -49 -30.5 -84t-78.5 -35l134 -201h-85l-138 214v-214h-72zM378 381h37q87 0 87 73q0 76 -83 76h-41v-149z" />
    <glyph glyph-name="macron" unicode="&#xaf;" horiz-adv-x="292" 
d="M0 550v75h292v-75h-292z" />
    <glyph glyph-name="plusminus" unicode="&#xb1;" horiz-adv-x="594" 
d="M506 87v-68h-462v68h462zM309 453v-122h197v-68h-197v-122h-68v122h-197v68h197v122h68z" />
    <glyph glyph-name="acute" unicode="&#xb4;" horiz-adv-x="298" 
d="M99 550l82 129h126l-139 -129h-69z" />
    <glyph glyph-name="mu" unicode="&#xb5;" horiz-adv-x="623" 
d="M166 449v-296q0 -58 7 -78q13 -41 57 -41q72 0 108 114q25 83 25 171v130h92v-328q0 -87 38 -87q43 0 43 82v14h21l1 -9v-13q0 -117 -90 -117q-102 0 -102 172q-31 -124 -98 -158q-26 -14 -60 -14q-86 0 -113 103v-11l-1 -17q0 -55 32 -136t32 -97q0 -42 -42 -42
q-43 0 -43 70l1 73l3 74l-1 101l-2 95v245h92z" />
    <glyph glyph-name="paragraph" unicode="&#xb6;" horiz-adv-x="655" 
d="M243 720h325v-65h-326q-56 0 -98 -41.5t-42 -101.5q0 -57 41.5 -98.5t98.5 -41.5h65v233h69v-605h-69v307h-65q-84 0 -144 60t-60 146q0 84 60.5 145.5t144.5 61.5zM439 0v605h69v-605h-69z" />
    <glyph glyph-name="periodcentered" unicode="&#xb7;" horiz-adv-x="227" 
d="M36 293q0 32 22.5 55t55.5 23q32 0 54.5 -23t22.5 -55t-23 -55q-21 -23 -54 -23t-56 23q-11 11 -16.5 24.5t-5.5 30.5z" />
    <glyph glyph-name="periodcentered" unicode="&#x2219;" horiz-adv-x="227" 
d="M36 293q0 32 22.5 55t55.5 23q32 0 54.5 -23t22.5 -55t-23 -55q-21 -23 -54 -23t-56 23q-11 11 -16.5 24.5t-5.5 30.5z" />
    <glyph glyph-name="cedilla" unicode="&#xb8;" horiz-adv-x="178" 
d="M40 -183q52 47 52 88q0 36 -41 68h140q9 -21 9 -37l-3 -24q-12 -37 -71 -95h-86z" />
    <glyph glyph-name="ordmasculine" unicode="&#xba;" horiz-adv-x="483" 
d="M44 253v77h360v-77h-360zM38 551q0 77 52.5 130.5t130.5 53.5h15.5t23.5 -4q65 -12 107 -62.5t42 -116.5q0 -21 -4 -40q-12 -63 -64 -105q-25 -20 -54 -30t-64 -10q-79 0 -132 54t-53 130zM123 551q0 -14 2 -20q6 -36 33 -62q27 -24 66 -24q44 0 72 32t28 75
q0 38 -21.5 65.5t-58.5 36.5q-6 2 -13 2h-10q-29 0 -55 -17q-32 -23 -41 -68z" />
    <glyph glyph-name="guillemotright" unicode="&#xbb;" horiz-adv-x="375" 
d="M28 63v105l89 80l-88 81v103l154 -129v-108zM192 63v105l88 80l-86 81v103l152 -129v-108z" />
    <glyph glyph-name="questiondown" unicode="&#xbf;" horiz-adv-x="412" 
d="M181 654q0 32 22.5 54.5t53.5 22.5q33 0 55 -23q23 -21 23 -54q0 -32 -23 -55t-55 -23t-54 23q-11 11 -16.5 24.5t-5.5 30.5zM261 509q31 -59 31 -85q0 -44 -61 -95q-45 -36 -61 -63.5t-16 -64.5q0 -42 33 -76t78 -34q32 0 58 11.5t75 51.5q-4 -20 -7 -43.5t-3 -38.5
l1 -40q-82 -35 -150 -35q-94 0 -154 55.5t-60 142.5v14q0 89 82 152l88 62q29 20 44 37q11 16 22 49z" />
    <glyph glyph-name="Agrave" unicode="&#xc0;" horiz-adv-x="666" 
d="M-26 0q57 63 87 139l196 488q18 44 27 94h132q15 -68 25 -95l170 -475q24 -68 81 -151h-209l3 36q0 19 -2 32.5t-9 32.5l-41 118h-199l-40 -104q-14 -37 -14 -76l2 -39h-209zM338 565l-83 -247h158zM181 936h126l75 -129h-70z" />
    <glyph glyph-name="Aacute" unicode="&#xc1;" horiz-adv-x="666" 
d="M-26 0q57 63 87 139l196 488q18 44 27 94h132q15 -68 25 -95l170 -475q24 -68 81 -151h-209l3 36q0 19 -2 32.5t-9 32.5l-41 118h-199l-40 -104q-14 -37 -14 -76l2 -39h-209zM338 565l-83 -247h158zM327 809l82 129h126l-139 -129h-69z" />
    <glyph glyph-name="Acircumflex" unicode="&#xc2;" horiz-adv-x="666" 
d="M-26 0q57 63 87 139l196 488q18 44 27 94h132q15 -68 25 -95l170 -475q24 -68 81 -151h-209l3 36q0 19 -2 32.5t-9 32.5l-41 118h-199l-40 -104q-14 -37 -14 -76l2 -39h-209zM338 565l-83 -247h158zM217 808l80 126h130l71 -126h-77l-63 65l-62 -65h-79z" />
    <glyph glyph-name="Atilde" unicode="&#xc3;" horiz-adv-x="666" 
d="M-26 0q57 63 87 139l196 488q18 44 27 94h132q15 -68 25 -95l170 -475q24 -68 81 -151h-209l3 36q0 19 -2 32.5t-9 32.5l-41 118h-199l-40 -104q-14 -37 -14 -76l2 -39h-209zM338 565l-83 -247h158zM201 810q11 108 94 108q32 0 82 -14l41 -7q17 0 20 18h77
q-12 -107 -89 -107q-27 0 -84 15l-38 7q-20 0 -24 -20h-79z" />
    <glyph glyph-name="Adieresis" unicode="&#xc4;" horiz-adv-x="666" 
d="M166 774q0 24 18 42t43 18q23 0 42 -17.5t19 -42.5q0 -23 -18 -44q-18 -18 -43 -18q-23 0 -42 18t-19 44zM418 774q0 24 18 42t43 18q23 0 42 -17.5t19 -42.5q0 -24 -17.5 -43t-42.5 -19q-24 0 -43 18t-19 44zM-26 0q57 63 87 139l196 488q18 44 27 94h132q15 -68 25 -95
l170 -475q24 -68 81 -151h-209l3 36q0 19 -2 32.5t-9 32.5l-41 118h-199l-40 -104q-14 -37 -14 -76l2 -39h-209zM338 565l-83 -247h158z" />
    <glyph glyph-name="Aring" unicode="&#xc5;" horiz-adv-x="666" 
d="M-26 0q57 63 87 139l196 488q18 44 27 94h132q15 -68 25 -95l170 -475q24 -68 81 -151h-209l3 36q0 19 -2 32.5t-9 32.5l-41 118h-199l-40 -104q-14 -37 -14 -76l2 -39h-209zM338 565l-83 -247h158zM275 852q0 33 24 57t58 24q32 0 57 -24t25 -57q0 -32 -24 -58
q-12 -11 -26 -17t-32 -6q-34 0 -58 23.5t-24 57.5zM357 891q-16 0 -27.5 -11t-11.5 -28q0 -16 11 -28q11 -9 28 -11q16 0 27 11q9 11 11 28q0 16 -11 27.5t-27 11.5z" />
    <glyph glyph-name="AE" unicode="&#xc6;" horiz-adv-x="914" 
d="M-26 0q66 69 108 137l303 482q27 42 33 57q2 4 5 17.5t6 27.5h446l-57 -126q-70 20 -170 29v-208h195l-66 -120q-31 10 -59.5 16.5t-69.5 12.5v-226q82 0 130 7.5t137 34.5l-65 -141h-381q30 48 30 102v117h-208l-70 -123q-29 -52 -29 -69l4 -27h-222zM499 595l-154 -276
h154v276z" />
    <glyph glyph-name="Ccedilla" unicode="&#xc7;" horiz-adv-x="638" 
d="M309 -141q41 36 41 69q0 25 -32 48h112l7 -28q0 -37 -58 -89h-70zM606 693l4 -146q-55 63 -95 84q-19 11 -44 17t-56 6q-95 0 -160 -85t-65 -211q0 -119 66.5 -199t167.5 -80q57 0 97.5 21.5t94.5 82.5l-20 -143q-61 -27 -97 -36q-19 -4 -46.5 -7t-55.5 -3
q-161 0 -263 101t-102 261q0 159 110 266t277 107q82 0 187 -36z" />
    <glyph glyph-name="Egrave" unicode="&#xc8;" horiz-adv-x="484" 
d="M41 0q30 48 30 102v521q0 49 -29 98h403l-56 -124q-43 12 -87.5 20.5t-83.5 8.5v-210h197l-67 -117q-62 21 -130 30v-235q45 0 76.5 3t58.5 8q46 6 131 31l-63 -136h-380zM98 936h126l75 -129h-70z" />
    <glyph glyph-name="Eacute" unicode="&#xc9;" horiz-adv-x="484" 
d="M41 0q30 48 30 102v521q0 49 -29 98h403l-56 -124q-43 12 -87.5 20.5t-83.5 8.5v-210h197l-67 -117q-62 21 -130 30v-235q45 0 76.5 3t58.5 8q46 6 131 31l-63 -136h-380zM202 809l82 129h126l-139 -129h-69z" />
    <glyph glyph-name="Ecircumflex" unicode="&#xca;" horiz-adv-x="484" 
d="M41 0q30 48 30 102v521q0 49 -29 98h403l-56 -124q-43 12 -87.5 20.5t-83.5 8.5v-210h197l-67 -117q-62 21 -130 30v-235q45 0 76.5 3t58.5 8q46 6 131 31l-63 -136h-380zM117 808l80 126h130l71 -126h-77l-63 65l-62 -65h-79z" />
    <glyph glyph-name="Edieresis" unicode="&#xcb;" horiz-adv-x="484" 
d="M111 869q0 23 16.5 39.5t39.5 16.5q24 0 41 -17q17 -15 17 -40q0 -24 -17 -41q-15 -17 -41 -17q-23 0 -39.5 17.5t-16.5 41.5zM280 868q0 24 17 40.5t41 16.5q23 0 39 -17q17 -15 17 -39q0 -25 -17 -42q-15 -17 -39 -17q-25 0 -41.5 17.5t-16.5 40.5zM41 0q30 48 30 102
v521q0 49 -29 98h403l-56 -124q-43 12 -87.5 20.5t-83.5 8.5v-210h197l-67 -117q-62 21 -130 30v-235q45 0 76.5 3t58.5 8q46 6 131 31l-63 -136h-380z" />
    <glyph glyph-name="Igrave" unicode="&#xcc;" horiz-adv-x="290" 
d="M40 721h209q-31 -57 -31 -98v-522q0 -48 30 -101h-208q30 48 30 102v522q0 47 -30 97zM-17 936h126l75 -129h-70z" />
    <glyph glyph-name="Iacute" unicode="&#xcd;" horiz-adv-x="290" 
d="M40 721h209q-31 -57 -31 -98v-522q0 -48 30 -101h-208q30 48 30 102v522q0 47 -30 97zM119 809l82 129h126l-139 -129h-69z" />
    <glyph glyph-name="Icircumflex" unicode="&#xce;" horiz-adv-x="290" 
d="M40 721h209q-31 -57 -31 -98v-522q0 -48 30 -101h-208q30 48 30 102v522q0 47 -30 97zM9 808l80 126h130l71 -126h-77l-63 65l-62 -65h-79z" />
    <glyph glyph-name="Idieresis" unicode="&#xcf;" horiz-adv-x="290" 
d="M40 721h209q-31 -57 -31 -98v-522q0 -48 30 -101h-208q30 48 30 102v522q0 47 -30 97zM6 869q0 23 17 39q15 17 39 17t41 -17q17 -15 17 -40q0 -24 -17 -41q-15 -17 -41 -17q-23 0 -39.5 17t-16.5 42zM175 868q0 24 17 40.5t41 16.5q23 0 39 -17q17 -15 17 -39
q0 -25 -17 -42q-15 -17 -39 -17q-25 0 -41.5 17.5t-16.5 40.5z" />
    <glyph glyph-name="Ntilde" unicode="&#xd1;" horiz-adv-x="739" 
d="M24 721h164q12 -48 34 -80l306 -438v421q0 52 -29 97h196q-27 -54 -27 -97v-521q0 -59 17 -103h-155l-316 455v-353q0 -54 27 -102h-196q17 27 21 44.5t4.5 33t0.5 24.5v532zM223 810q11 108 94 108q32 0 82 -14l41 -7q17 0 20 18h77q-12 -107 -89 -107q-27 0 -84 15
l-38 7q-20 0 -24 -20h-79z" />
    <glyph glyph-name="Ograve" unicode="&#xd2;" horiz-adv-x="800" 
d="M32 363q0 159 104 262.5t264 103.5q157 0 262.5 -105.5t105.5 -266.5q0 -156 -106 -262q-53 -52 -118 -78t-147 -26q-157 0 -261 105.5t-104 266.5zM187 401q0 -130 70 -219q75 -98 202 -98q71 0 104 40q51 65 51 201q0 68 -18 123t-56 100q-73 88 -186 88
q-84 0 -123 -45q-44 -52 -44 -190zM231 936h126l75 -129h-70z" />
    <glyph glyph-name="Oacute" unicode="&#xd3;" horiz-adv-x="800" 
d="M32 363q0 159 104 262.5t264 103.5q157 0 262.5 -105.5t105.5 -266.5q0 -156 -106 -262q-53 -52 -118 -78t-147 -26q-157 0 -261 105.5t-104 266.5zM187 401q0 -130 70 -219q75 -98 202 -98q71 0 104 40q51 65 51 201q0 68 -18 123t-56 100q-73 88 -186 88
q-84 0 -123 -45q-44 -52 -44 -190zM372 809l82 129h126l-139 -129h-69z" />
    <glyph glyph-name="Ocircumflex" unicode="&#xd4;" horiz-adv-x="800" 
d="M32 363q0 159 104 262.5t264 103.5q157 0 262.5 -105.5t105.5 -266.5q0 -156 -106 -262q-53 -52 -118 -78t-147 -26q-157 0 -261 105.5t-104 266.5zM187 401q0 -130 70 -219q75 -98 202 -98q71 0 104 40q51 65 51 201q0 68 -18 123t-56 100q-73 88 -186 88
q-84 0 -123 -45q-44 -52 -44 -190zM268 808l80 126h130l71 -126h-77l-63 65l-62 -65h-79z" />
    <glyph glyph-name="Otilde" unicode="&#xd5;" horiz-adv-x="800" 
d="M32 363q0 159 104 262.5t264 103.5q157 0 262.5 -105.5t105.5 -266.5q0 -156 -106 -262q-53 -52 -118 -78t-147 -26q-157 0 -261 105.5t-104 266.5zM187 401q0 -130 70 -219q75 -98 202 -98q71 0 104 40q51 65 51 201q0 68 -18 123t-56 100q-73 88 -186 88
q-84 0 -123 -45q-44 -52 -44 -190zM253 810q11 108 94 108q32 0 82 -14l41 -7q17 0 20 18h77q-12 -107 -89 -107q-27 0 -84 15l-38 7q-20 0 -24 -20h-79z" />
    <glyph glyph-name="Odieresis" unicode="&#xd6;" horiz-adv-x="800" 
d="M91 758q0 25 18 42t42 17q26 0 43.5 -17t17.5 -42q0 -23 -17.5 -42t-43.5 -19q-23 0 -43 18q-17 19 -17 43zM592 758q0 25 18 42t42 17q25 0 42 -17t17 -41q0 -26 -17 -44t-42 -18t-43 17q-17 19 -17 44zM32 363q0 159 104 262.5t264 103.5q157 0 262.5 -105.5
t105.5 -266.5q0 -156 -106 -262q-53 -52 -118 -78t-147 -26q-157 0 -261 105.5t-104 266.5zM187 401q0 -130 70 -219q75 -98 202 -98q71 0 104 40q51 65 51 201q0 68 -18 123t-56 100q-73 88 -186 88q-84 0 -123 -45q-44 -52 -44 -190z" />
    <glyph glyph-name="multiply" unicode="&#xd7;" 
d="M104 239l121 121l-119 119l71 72l120 -120l122 123l73 -73l-122 -122l123 -123l-72 -73l-124 125l-121 -122z" />
    <glyph glyph-name="Oslash" unicode="&#xd8;" horiz-adv-x="800" 
d="M636 649l66 70l44 -42l-69 -69q53 -70 72 -119.5t19 -131.5q0 -156 -106 -262q-53 -52 -118 -78t-147 -26q-47 0 -78.5 3t-55.5 11q-42 15 -95 65l-79 -83l-49 42l80 83q-25 37 -42.5 68t-28.5 58q-17 51 -17 124q0 159 104 263t265 104q76 0 121.5 -15.5t113.5 -64.5z
M575 498l-308 -322q49 -54 89.5 -73t101.5 -19q72 0 105 40q51 65 51 206q0 78 -20 129zM229 225l313 325q-54 48 -94 67t-92 19q-86 0 -122 -46q-43 -57 -43 -189q0 -72 18 -126q6 -19 9 -26.5t11 -23.5z" />
    <glyph glyph-name="Ugrave" unicode="&#xd9;" horiz-adv-x="694" 
d="M40 721h204q-27 -54 -27 -97v-408q0 -126 118 -126q34 0 66 15t54 41.5t22 47.5v430q0 45 -29 97h205q-28 -53 -28 -97v-523q0 -51 27 -101h-180q10 30 10 58v12q-58 -44 -97.5 -60t-89.5 -16q-83 0 -145 47q-81 60 -81 200v383q0 23 -7 47.5t-22 49.5zM200 936h126
l75 -129h-70z" />
    <glyph glyph-name="Uacute" unicode="&#xda;" horiz-adv-x="694" 
d="M40 721h204q-27 -54 -27 -97v-408q0 -126 118 -126q34 0 66 15t54 41.5t22 47.5v430q0 45 -29 97h205q-28 -53 -28 -97v-523q0 -51 27 -101h-180q10 30 10 58v12q-58 -44 -97.5 -60t-89.5 -16q-83 0 -145 47q-81 60 -81 200v383q0 23 -7 47.5t-22 49.5zM317 809l82 129
h126l-139 -129h-69z" />
    <glyph glyph-name="Ucircumflex" unicode="&#xdb;" horiz-adv-x="694" 
d="M40 721h204q-27 -54 -27 -97v-408q0 -126 118 -126q34 0 66 15t54 41.5t22 47.5v430q0 45 -29 97h205q-28 -53 -28 -97v-523q0 -51 27 -101h-180q10 30 10 58v12q-58 -44 -97.5 -60t-89.5 -16q-83 0 -145 47q-81 60 -81 200v383q0 23 -7 47.5t-22 49.5zM218 808l80 126
h130l71 -126h-77l-63 65l-62 -65h-79z" />
    <glyph glyph-name="Udieresis" unicode="&#xdc;" horiz-adv-x="694" 
d="M40 721h204q-27 -54 -27 -97v-408q0 -126 118 -126q34 0 66 15t54 41.5t22 47.5v430q0 45 -29 97h205q-28 -53 -28 -97v-523q0 -51 27 -101h-180q10 30 10 58v12q-58 -44 -97.5 -60t-89.5 -16q-83 0 -145 47q-81 60 -81 200v383q0 23 -7 47.5t-22 49.5zM188 820
q0 24 18 42t43 18q24 0 42 -17.5t18 -42.5q0 -23 -17.5 -42t-42.5 -19q-23 0 -42 18t-19 43zM400 820q0 25 17.5 42.5t41.5 17.5t43 -17.5t19 -42.5q0 -23 -17.5 -42t-43.5 -19q-23 0 -43 18q-17 19 -17 43z" />
    <glyph glyph-name="germandbls" unicode="&#xdf;" horiz-adv-x="548" 
d="M39 0q23 44 23 98v427q0 92 57.5 147.5t155.5 55.5q79 0 127.5 -39.5t48.5 -106.5q0 -58 -64 -138q-21 -26 -21 -42q0 -24 46 -67l44 -41q68 -63 68 -144q0 -70 -48 -114t-126 -44q-45 0 -99 21q0 51 -20 111l40 -31q41 -25 76 -25q57 0 57 63q0 26 -71 104l-40 44
q-48 53 -48 83q0 39 33 81l32 43q32 52 32 99q0 30 -20 50q-18 21 -47 21q-37 0 -61 -31q-22 -31 -22 -84v-443q0 -54 24 -98h-177z" />
    <glyph glyph-name="agrave" unicode="&#xe0;" horiz-adv-x="478" 
d="M74 379q17 52 24 98q76 28 147 28q170 0 170 -139v-268q0 -56 24 -98h-154l4 54q-22 -15 -74 -62h-14q-44 0 -79.5 8t-64.5 41q-27 33 -27 78q0 68 54.5 106t133.5 60q44 12 55.5 23.5t11.5 48.5q0 72 -75 72q-18 0 -26.5 -1t-22.5 -7q-27 -9 -87 -42zM285 112v115h-72
q-56 0 -56 -77q0 -82 72 -82q56 0 56 44zM87 677h126l75 -129h-70z" />
    <glyph glyph-name="aacute" unicode="&#xe1;" horiz-adv-x="478" 
d="M74 379q17 52 24 98q76 28 147 28q170 0 170 -139v-268q0 -56 24 -98h-154l4 54q-22 -15 -74 -62h-14q-44 0 -79.5 8t-64.5 41q-27 33 -27 78q0 68 54.5 106t133.5 60q44 12 55.5 23.5t11.5 48.5q0 72 -75 72q-18 0 -26.5 -1t-22.5 -7q-27 -9 -87 -42zM285 112v115h-72
q-56 0 -56 -77q0 -82 72 -82q56 0 56 44zM203 550l82 129h126l-139 -129h-69z" />
    <glyph glyph-name="acircumflex" unicode="&#xe2;" horiz-adv-x="478" 
d="M74 379q17 52 24 98q76 28 147 28q170 0 170 -139v-268q0 -56 24 -98h-154l4 54q-22 -15 -74 -62h-14q-44 0 -79.5 8t-64.5 41q-27 33 -27 78q0 68 54.5 106t133.5 60q44 12 55.5 23.5t11.5 48.5q0 72 -75 72q-18 0 -26.5 -1t-22.5 -7q-27 -9 -87 -42zM285 112v115h-72
q-56 0 -56 -77q0 -82 72 -82q56 0 56 44zM110 549l80 126h130l71 -126h-77l-63 65l-62 -65h-79z" />
    <glyph glyph-name="atilde" unicode="&#xe3;" horiz-adv-x="478" 
d="M74 379q17 52 24 98q76 28 147 28q170 0 170 -139v-268q0 -56 24 -98h-154l4 54q-22 -15 -74 -62h-14q-44 0 -79.5 8t-64.5 41q-27 33 -27 78q0 68 54.5 106t133.5 60q44 12 55.5 23.5t11.5 48.5q0 72 -75 72q-18 0 -26.5 -1t-22.5 -7q-27 -9 -87 -42zM285 112v115h-72
q-56 0 -56 -77q0 -82 72 -82q56 0 56 44zM102 551q11 108 94 108q32 0 82 -14l41 -7q17 0 20 18h77q-12 -107 -89 -107q-27 0 -84 15l-38 7q-20 0 -24 -20h-79z" />
    <glyph glyph-name="adieresis" unicode="&#xe4;" horiz-adv-x="478" 
d="M74 379q17 52 24 98q76 28 147 28q170 0 170 -139v-268q0 -56 24 -98h-154l4 54q-22 -15 -74 -62h-14q-44 0 -79.5 8t-64.5 41q-27 33 -27 78q0 68 54.5 106t133.5 60q44 12 55.5 23.5t11.5 48.5q0 72 -75 72q-18 0 -26.5 -1t-22.5 -7q-27 -9 -87 -42zM285 112v115h-72
q-56 0 -56 -77q0 -82 72 -82q56 0 56 44zM111 611q0 23 17 39q15 17 39 17t41 -17q17 -15 17 -40q0 -24 -17 -41q-15 -17 -41 -17q-23 0 -39.5 17t-16.5 42zM280 610q0 24 17 40.5t41 16.5q23 0 39 -17q17 -15 17 -39q0 -25 -17 -42q-15 -17 -39 -17q-25 0 -41.5 17.5
t-16.5 40.5z" />
    <glyph glyph-name="aring" unicode="&#xe5;" horiz-adv-x="478" 
d="M74 379q17 52 24 98q76 28 147 28q170 0 170 -139v-268q0 -56 24 -98h-154l4 54q-22 -15 -74 -62h-14q-44 0 -79.5 8t-64.5 41q-27 33 -27 78q0 68 54.5 106t133.5 60q44 12 55.5 23.5t11.5 48.5q0 72 -75 72q-18 0 -26.5 -1t-22.5 -7q-27 -9 -87 -42zM285 112v115h-72
q-56 0 -56 -77q0 -82 72 -82q56 0 56 44zM169 616q0 33 24 57t58 24q32 0 57 -24t25 -57q0 -32 -24 -58q-12 -11 -26 -17t-32 -6q-34 0 -58 23.5t-24 57.5zM251 655q-16 0 -27.5 -11t-11.5 -28q0 -16 11 -28q11 -9 28 -11q16 0 27 11q9 11 11 28q0 16 -11 27.5t-27 11.5z
" />
    <glyph glyph-name="ae" unicode="&#xe6;" horiz-adv-x="706" 
d="M67 378q17 47 24 99q70 29 137 29h13q47 0 69 -6t59 -37q33 25 56.5 33.5t64.5 8.5q68 0 113 -33q33 -24 53.5 -75t20.5 -107l-1 -58h-265q0 -43 10 -74q9 -36 39 -60q31 -22 68 -22q55 0 142 43q-29 -49 -45 -101q-60 -24 -117 -24h-15q-68 0 -98.5 14.5t-72.5 65.5
q-64 -35 -111 -82h-9q-27 0 -40 1t-37 6q-40 9 -67.5 42.5t-27.5 78.5q0 69 52 105q36 24 134 58q42 14 52.5 26.5t10.5 46.5q0 71 -74 71q-50 0 -138 -49zM417 351l-6 -48h155q0 81 -25 112q-18 24 -47 24q-62 0 -77 -88zM279 121v108h-65q-57 0 -57 -75q0 -40 19.5 -63
t51.5 -23q51 0 51 53z" />
    <glyph glyph-name="ccedilla" unicode="&#xe7;" horiz-adv-x="446" 
d="M194 -142q40 37 40 67q0 24 -32 49h112q6 -15 6 -28q0 -35 -57 -88h-69zM415 490v-23l-1 -16q0 -13 1 -31.5t4 -40.5l-23 21q-49 38 -95 38q-63 0 -104.5 -50.5t-41.5 -130.5q0 -84 46 -136t120 -52l37 2q32 6 77 25q-31 -50 -48 -92q-71 -12 -108 -12q-113 0 -182.5 66
t-69.5 177q0 120 79.5 195t207.5 75q44 0 101 -15z" />
    <glyph glyph-name="egrave" unicode="&#xe8;" horiz-adv-x="472" 
d="M442 232h-276q0 -88 45 -128q34 -29 83 -29q55 0 143 47q-29 -54 -46 -103q-68 -27 -123 -27q-234 0 -234 249q0 124 59 194t162 70q89 0 138.5 -57t49.5 -159zM174 355l-5 -54h164v13q0 126 -79 126q-65 0 -80 -85zM91 677h126l75 -129h-70z" />
    <glyph glyph-name="eacute" unicode="&#xe9;" horiz-adv-x="472" 
d="M442 232h-276q0 -88 45 -128q34 -29 83 -29q55 0 143 47q-29 -54 -46 -103q-68 -27 -123 -27q-234 0 -234 249q0 124 59 194t162 70q89 0 138.5 -57t49.5 -159zM174 355l-5 -54h164v13q0 126 -79 126q-65 0 -80 -85zM221 550l82 129h126l-139 -129h-69z" />
    <glyph glyph-name="ecircumflex" unicode="&#xea;" horiz-adv-x="472" 
d="M442 232h-276q0 -88 45 -128q34 -29 83 -29q55 0 143 47q-29 -54 -46 -103q-68 -27 -123 -27q-234 0 -234 249q0 124 59 194t162 70q89 0 138.5 -57t49.5 -159zM174 355l-5 -54h164v13q0 126 -79 126q-65 0 -80 -85zM118 549l80 126h130l71 -126h-77l-63 65l-62 -65h-79z
" />
    <glyph glyph-name="edieresis" unicode="&#xeb;" horiz-adv-x="472" 
d="M442 232h-276q0 -88 45 -128q34 -29 83 -29q55 0 143 47q-29 -54 -46 -103q-68 -27 -123 -27q-234 0 -234 249q0 124 59 194t162 70q89 0 138.5 -57t49.5 -159zM174 355l-5 -54h164v13q0 126 -79 126q-65 0 -80 -85zM117 610q0 23 17 39q15 17 39 17t41 -17
q17 -15 17 -40q0 -24 -17 -41q-15 -17 -41 -17q-23 0 -39.5 17t-16.5 42zM286 609q0 24 17 40.5t41 16.5q23 0 39 -17q17 -15 17 -39q0 -25 -17 -42q-15 -17 -39 -17q-25 0 -41.5 17.5t-16.5 40.5z" />
    <glyph glyph-name="igrave" unicode="&#xec;" horiz-adv-x="254" 
d="M39 0q24 45 24 98v311q0 43 -24 88h176q-24 -56 -24 -89v-311q0 -47 24 -97h-176zM-29 677h126l75 -129h-70z" />
    <glyph glyph-name="iacute" unicode="&#xed;" horiz-adv-x="254" 
d="M39 0q24 45 24 98v311q0 43 -24 88h176q-24 -56 -24 -89v-311q0 -47 24 -97h-176zM99 550l82 129h126l-139 -129h-69z" />
    <glyph glyph-name="icircumflex" unicode="&#xee;" horiz-adv-x="254" 
d="M39 0q24 45 24 98v311q0 43 -24 88h176q-24 -56 -24 -89v-311q0 -47 24 -97h-176zM-8 549l80 126h130l71 -126h-77l-63 65l-62 -65h-79z" />
    <glyph glyph-name="idieresis" unicode="&#xef;" horiz-adv-x="254" 
d="M39 0q24 45 24 98v311q0 43 -24 88h176q-24 -56 -24 -89v-311q0 -47 24 -97h-176zM-4 610q0 23 17 39q15 17 39 17t41 -17q17 -15 17 -40q0 -24 -17 -41q-15 -17 -41 -17q-23 0 -39.5 17t-16.5 42zM165 609q0 24 17 40.5t41 16.5q23 0 39 -17q17 -15 17 -39
q0 -25 -17 -42q-15 -17 -39 -17q-25 0 -41.5 17.5t-16.5 40.5z" />
    <glyph glyph-name="ntilde" unicode="&#xf1;" horiz-adv-x="533" 
d="M37 0q25 44 25 98v311q0 41 -24 88h153v-85q33 31 65 78q40 14 77 14q137 0 137 -130v-277q0 -54 25 -97h-176q23 46 23 98v266q0 62 -63 62q-33 0 -54 -21l-20 -20l-14 -20v-267q0 -55 23 -98h-177zM121 551q11 108 94 108q32 0 82 -14l41 -7q17 0 20 18h77
q-12 -107 -89 -107q-27 0 -84 15l-38 7q-20 0 -24 -20h-79z" />
    <glyph glyph-name="ograve" unicode="&#xf2;" horiz-adv-x="562" 
d="M30 238q0 118 73.5 192t190.5 74q68 0 118.5 -27t85 -92t34.5 -136q0 -113 -71 -185t-183 -72q-107 0 -177.5 70t-70.5 176zM177 407q-20 -20 -20 -90v-10q0 -124 59 -186q48 -51 105 -51q51 0 67 35q13 29 13 91q0 74 -20 120q-14 35 -35 57q-48 54 -104 54
q-45 0 -65 -20zM129 677h126l75 -129h-70z" />
    <glyph glyph-name="oacute" unicode="&#xf3;" horiz-adv-x="562" 
d="M30 238q0 118 73.5 192t190.5 74q68 0 118.5 -27t85 -92t34.5 -136q0 -113 -71 -185t-183 -72q-107 0 -177.5 70t-70.5 176zM177 407q-20 -20 -20 -90v-10q0 -124 59 -186q48 -51 105 -51q51 0 67 35q13 29 13 91q0 74 -20 120q-14 35 -35 57q-48 54 -104 54
q-45 0 -65 -20zM261 550l82 129h126l-139 -129h-69z" />
    <glyph glyph-name="ocircumflex" unicode="&#xf4;" horiz-adv-x="562" 
d="M30 238q0 118 73.5 192t190.5 74q68 0 118.5 -27t85 -92t34.5 -136q0 -113 -71 -185t-183 -72q-107 0 -177.5 70t-70.5 176zM177 407q-20 -20 -20 -90v-10q0 -124 59 -186q48 -51 105 -51q51 0 67 35q13 29 13 91q0 74 -20 120q-14 35 -35 57q-48 54 -104 54
q-45 0 -65 -20zM153 549l80 126h130l71 -126h-77l-63 65l-62 -65h-79z" />
    <glyph glyph-name="otilde" unicode="&#xf5;" horiz-adv-x="562" 
d="M30 238q0 118 73.5 192t190.5 74q68 0 118.5 -27t85 -92t34.5 -136q0 -113 -71 -185t-183 -72q-107 0 -177.5 70t-70.5 176zM177 407q-20 -20 -20 -90v-10q0 -124 59 -186q48 -51 105 -51q51 0 67 35q13 29 13 91q0 74 -20 120q-14 35 -35 57q-48 54 -104 54
q-45 0 -65 -20zM134 551q11 108 94 108q32 0 82 -14l41 -7q17 0 20 18h77q-12 -107 -89 -107q-27 0 -84 15l-38 7q-20 0 -24 -20h-79z" />
    <glyph glyph-name="odieresis" unicode="&#xf6;" horiz-adv-x="562" 
d="M30 238q0 118 73.5 192t190.5 74q68 0 118.5 -27t85 -92t34.5 -136q0 -113 -71 -185t-183 -72q-107 0 -177.5 70t-70.5 176zM177 407q-20 -20 -20 -90v-10q0 -124 59 -186q48 -51 105 -51q51 0 67 35q13 29 13 91q0 74 -20 120q-14 35 -35 57q-48 54 -104 54
q-45 0 -65 -20zM153 610q0 23 17 39q15 17 39 17t41 -17q17 -15 17 -40q0 -24 -17 -41q-15 -17 -41 -17q-23 0 -39.5 17t-16.5 42zM322 609q0 24 17 40.5t41 16.5q23 0 39 -17q17 -15 17 -39q0 -25 -17 -42q-15 -17 -39 -17q-25 0 -41.5 17.5t-16.5 40.5z" />
    <glyph glyph-name="divide" unicode="&#xf7;" horiz-adv-x="594" 
d="M275 158q24 0 40 -16t16 -41q0 -23 -17 -40q-15 -17 -39 -17t-41 16q-16 18 -16 41q0 24 16.5 40.5t40.5 16.5zM506 270v-68h-463v68h463zM275 427q23 0 39.5 -17t16.5 -40t-17 -40q-15 -17 -39 -17t-41 16q-16 18 -16 41q0 24 16.5 40.5t40.5 16.5z" />
    <glyph glyph-name="oslash" unicode="&#xf8;" horiz-adv-x="561" 
d="M436 453l56 58l39 -32l-60 -62q32 -44 43 -78t11 -89q0 -115 -71 -186.5t-183 -71.5q-25 0 -42.5 2t-36.5 8q-27 9 -71 34l-47 -47l-39 34l53 51l-24 38q-35 67 -35 139q0 111 69.5 179.5t183.5 68.5q54 0 83 -8t71 -38zM374 316l-170 -188q20 -24 52 -42q35 -16 60 -16
q50 0 66 35q13 31 13 87q0 59 -21 124zM184 181l166 184q-71 59 -121 59q-70 0 -70 -75q0 -62 13 -121z" />
    <glyph glyph-name="ugrave" unicode="&#xf9;" horiz-adv-x="529" 
d="M36 497h177q-10 -25 -16 -48.5t-6 -39.5v-271q0 -45 20.5 -57.5t50.5 -12.5q18 0 30 4t25 16q19 17 19 55v266q0 47 -22 88h177q-25 -53 -25 -88v-311q0 -38 4 -53.5t21 -44.5h-155v74l-52 -66q-47 -14 -76 -14q-68 0 -107 32.5t-39 89.5v293q0 46 -26 88zM115 677h126
l75 -129h-70z" />
    <glyph glyph-name="uacute" unicode="&#xfa;" horiz-adv-x="529" 
d="M36 497h177q-10 -25 -16 -48.5t-6 -39.5v-271q0 -45 20.5 -57.5t50.5 -12.5q18 0 30 4t25 16q19 17 19 55v266q0 47 -22 88h177q-25 -53 -25 -88v-311q0 -38 4 -53.5t21 -44.5h-155v74l-52 -66q-47 -14 -76 -14q-68 0 -107 32.5t-39 89.5v293q0 46 -26 88zM237 550
l82 129h126l-139 -129h-69z" />
    <glyph glyph-name="ucircumflex" unicode="&#xfb;" horiz-adv-x="529" 
d="M36 497h177q-10 -25 -16 -48.5t-6 -39.5v-271q0 -45 20.5 -57.5t50.5 -12.5q18 0 30 4t25 16q19 17 19 55v266q0 47 -22 88h177q-25 -53 -25 -88v-311q0 -38 4 -53.5t21 -44.5h-155v74l-52 -66q-47 -14 -76 -14q-68 0 -107 32.5t-39 89.5v293q0 46 -26 88zM130 549
l80 126h130l71 -126h-77l-63 65l-62 -65h-79z" />
    <glyph glyph-name="udieresis" unicode="&#xfc;" horiz-adv-x="529" 
d="M36 497h177q-10 -25 -16 -48.5t-6 -39.5v-271q0 -45 20.5 -57.5t50.5 -12.5q18 0 30 4t25 16q19 17 19 55v266q0 47 -22 88h177q-25 -53 -25 -88v-311q0 -38 4 -53.5t21 -44.5h-155v74l-52 -66q-47 -14 -76 -14q-68 0 -107 32.5t-39 89.5v293q0 46 -26 88zM133 611
q0 23 17 39q15 17 39 17t41 -17q17 -15 17 -40q0 -24 -17 -41q-15 -17 -41 -17q-23 0 -39.5 17t-16.5 42zM302 610q0 24 17 40.5t41 16.5q23 0 39 -17q17 -15 17 -39q0 -25 -17 -42q-15 -17 -39 -17q-25 0 -41.5 17.5t-16.5 40.5z" />
    <glyph glyph-name="ydieresis" unicode="&#xff;" horiz-adv-x="479" 
d="M-24 497h183l-2 -21q0 -13 11 -41l90 -226l85 231q5 14 5 19v8q0 10 -5 30h160q-39 -50 -66 -112l-155 -376q-13 -34 -26 -58.5t-24 -38.5q-21 -30 -74 -71h-110q62 57 84 92q23 32 62 125l-143 328q-30 68 -75 111zM124 610q0 23 17 39q15 17 39 17t41 -17
q17 -15 17 -40q0 -24 -17 -41q-15 -17 -41 -17q-23 0 -39.5 17t-16.5 42zM293 609q0 24 17 40.5t41 16.5q23 0 39 -17q17 -15 17 -39q0 -25 -17 -42q-15 -17 -39 -17q-25 0 -41.5 17.5t-16.5 40.5z" />
    <glyph glyph-name="breve" unicode="&#x2d8;" horiz-adv-x="281" 
d="M0 675h77q44 -65 64 -65q18 0 61 65h79q-54 -145 -144 -145q-48 0 -79.5 32.5t-57.5 112.5z" />
    <glyph glyph-name="dotaccent" unicode="&#x2d9;" horiz-adv-x="153" 
d="M0 635q0 32 22 54t54 22t54.5 -21.5t22.5 -54.5q0 -32 -22.5 -54.5t-54.5 -22.5t-54 22q-11 11 -16.5 24.5t-5.5 30.5z" />
    <glyph glyph-name="dotlessi" unicode="&#x131;" horiz-adv-x="254" 
d="M39 0q24 45 24 98v311q0 43 -24 88h176q-24 -56 -24 -89v-311q0 -47 24 -97h-176z" />
    <glyph glyph-name="ring" unicode="&#x2da;" horiz-adv-x="202" 
d="M19 627q0 33 24 57t58 24q32 0 57 -24t25 -57q0 -32 -24 -58q-12 -11 -26 -17t-32 -6q-34 0 -58 23.5t-24 57.5zM101 666q-16 0 -27.5 -11t-11.5 -28q0 -16 11 -28q11 -9 28 -11q16 0 27 11q9 11 11 28q0 16 -11 27.5t-27 11.5z" />
    <glyph glyph-name="ogonek" unicode="&#x2db;" horiz-adv-x="194" 
d="M18 66q0 32 23 54.5t54 22.5q32 0 54 -23q23 -21 23 -54q0 -31 -23 -54q-21 -23 -54 -23q-31 0 -54 23t-23 54z" />
    <glyph glyph-name="caron" unicode="&#x2c7;" horiz-adv-x="281" 
d="M0 675h77l64 -65l61 65h79l-80 -125h-130z" />
    <glyph glyph-name="fraction" unicode="&#x2215;" horiz-adv-x="232" 
d="M0 0l163 721h69l-161 -721h-71z" />
    <glyph glyph-name="Zcaron" unicode="&#x17d;" horiz-adv-x="525" 
d="M12 554l47 167h440l-285 -624h38q89 0 133 9.5t124 49.5l-45 -156h-442l286 622q-109 0 -160 -14q-47 -10 -136 -54zM147 934h77l64 -65l61 65h79l-80 -125h-130z" />
    <glyph glyph-name="zcaron" unicode="&#x17e;" horiz-adv-x="396" 
d="M11 0q23 31 40 67l159 361l-52 2q-58 0 -133 -41q15 50 24 108h336q-27 -33 -51 -87l-149 -340h18l19 -1q50 0 79 8q16 3 32 8t46 18q-9 -25 -15.5 -48.5t-12.5 -54.5h-340zM87 675h77l64 -65l61 65h79l-80 -125h-130z" />
    <glyph glyph-name="c274" unicode="&#x112;" horiz-adv-x="292" 
d="M0 550v75h292v-75h-292z" />
    <glyph glyph-name="Delta" unicode="&#x113;" horiz-adv-x="662" 
d="M319 672l276 -672h-574l276 672h22zM279 504l-187 -459h373z" />
    <glyph glyph-name="c276" unicode="&#x114;" horiz-adv-x="830" 
d="M470 90h123q49 0 67 18q10 10 15.5 26.5t5.5 41.5h23v-176h-272v180q80 15 127 81q41 61 41 147q0 101 -57.5 166t-158.5 65t-158.5 -64t-57.5 -167q0 -91 43 -150.5t125 -77.5v-180h-272v176h23q0 -46 19 -66t69 -20h123v59q-110 19 -176 82q-72 69 -72 177
q0 132 105 204q90 63 229 63q137 0 229 -63q105 -73 105 -204q0 -99 -65 -170q-60 -65 -183 -89v-59z" />
    <glyph glyph-name="mu1" unicode="&#x115;" horiz-adv-x="623" 
d="M166 449v-296q0 -58 7 -78q13 -41 57 -41q72 0 108 114q25 83 25 171v130h92v-328q0 -87 38 -87q43 0 43 82v14h21l1 -9v-13q0 -117 -90 -117q-102 0 -102 172q-31 -124 -98 -158q-26 -14 -60 -14q-86 0 -113 103v-11l-1 -17q0 -55 32 -136t32 -97q0 -42 -42 -42
q-43 0 -43 70l1 73l3 74l-1 101l-2 95v245h92z" />
    <glyph glyph-name="c278" unicode="&#x116;" horiz-adv-x="594" 
d="M414 372l-10 1l-1 -24l-3 -150v-40q0 -86 9 -106t30 -20q25 0 40 28q9 16 13.5 37.5t4.5 52.5h25v-5q0 -156 -106 -156q-72 0 -93 72q-10 37 -10 132l1 78l3 104l-50 1l-77 2q0 -172 -6 -220q-18 -169 -97 -169q-70 0 -70 115v19h24q0 -26 10 -41q9 -11 27 -11
q55 0 72 135l6 172h-22q-75 0 -87 -53h-23q0 71 46 101q35 22 113 22l127 -3l127 -3q63 0 66 28l23 1q0 -53 -24 -77q-12 -12 -29.5 -17.5t-44.5 -5.5h-14z" />
    <glyph glyph-name="c279" unicode="&#x117;" horiz-adv-x="333" 
d="M28 188v137q14 -15 39 -15h198q27 0 40 14v-135q-14 14 -38 14h-199q-26 0 -40 -15z" />
    <glyph glyph-name="uni20AC" unicode="&#x20ac;" horiz-adv-x="713" 
d="M560 268h-288q23 -87 83 -138t140 -51q57 0 97.5 21.5t94.5 82.5l-20 -143q-61 -27 -97 -36q-19 -4 -46.5 -7t-55.5 -3q-137 0 -233 74.5t-123 199.5h-85l31 73h45v15l1 24h-77l31 73h57q30 123 133 199.5t242 76.5q82 0 187 -36l4 -146q-55 63 -95 84q-19 11 -44 17
t-56 6q-77 0 -134.5 -54.5t-79.5 -146.5h368l-31 -73h-347l-1 -22v-17h330z" />
    <glyph glyph-name="c281" unicode="&#x119;" horiz-adv-x="830" 
d="M470 90h123q49 0 67 18q10 10 15.5 26.5t5.5 41.5h23v-176h-272v180q80 15 127 81q41 61 41 147q0 101 -57.5 166t-158.5 65t-158.5 -64t-57.5 -167q0 -91 43 -150.5t125 -77.5v-180h-272v176h23q0 -46 19 -66t69 -20h123v59q-110 19 -176 82q-72 69 -72 177
q0 132 105 204q90 63 229 63q137 0 229 -63q105 -73 105 -204q0 -99 -65 -170q-60 -65 -183 -89v-59z" />
    <glyph glyph-name="c282" unicode="&#x11a;" horiz-adv-x="534" 
d="M358 287q12 45 12 148q0 167 -63 167q-15 0 -48.5 -33.5t-57.5 -36.5q-15 0 -24.5 7.5t-12.5 24.5q0 33 36 54q29 17 66 17q90 0 136 -94q34 -74 34 -174q0 -132 -47 -239q-60 -141 -175 -141q-75 0 -116 59q-36 52 -36 129q0 79 51 142t127 63q85 0 118 -93zM256 349
q-52 0 -86 -59t-34 -162q0 -119 84 -119q63 0 96 81q25 61 25 134q0 125 -85 125z" />
    <glyph glyph-name="increment.001" unicode="&#x11b;" horiz-adv-x="662" 
d="M319 672l276 -672h-574l276 672h22zM279 504l-187 -459h373z" />
    <glyph glyph-name="c284" unicode="&#x11c;" horiz-adv-x="890" 
d="M30 -176h88v880h-88v40h767v-40h-88v-880h88v-40h-264v40h84v880h-407v-880h84v-40h-264v40z" />
    <glyph glyph-name="c285" unicode="&#x11d;" horiz-adv-x="771" 
d="M593 730q16 -13 25 -87l15 -129h-44q-31 105 -86 144t-168 39h-132l315 -431l-344 -394h187q109 0 159 24q60 30 96 124h45l-32 -137q-27 -99 -111 -99h-482l389 446l-375 514h460q66 0 83 -14z" />
    <glyph glyph-name="Gbreve" unicode="&#x11e;" horiz-adv-x="594" 
d="M594 811v-47h-57l-290 -784h-32l-156 431l-61 -22l-12 39l138 48l125 -346l252 681h93z" />
    <glyph glyph-name="gbreve" unicode="&#x11f;" horiz-adv-x="771" 
d="M430 143q-34 30 -64 95q-65 -124 -157 -124q-69 0 -112.5 56.5t-43.5 127.5q0 76 35 126q40 60 111 60q90 0 148 -124q62 124 157 124q69 0 115 -58q40 -54 40 -126q0 -75 -34 -127q-39 -59 -111 -59q-49 0 -84 29zM330 327q-53 93 -135 93q-52 0 -85 -36
q-15 -17 -23.5 -40t-8.5 -49q0 -50 28.5 -86.5t77.5 -36.5q51 0 92 56q21 27 54 99zM383 271q47 -93 135 -93q53 0 85 36.5t32 88.5q0 53 -30 88t-80 35q-72 0 -142 -155z" />
    <glyph glyph-name="c288" unicode="&#x120;" horiz-adv-x="296" 
d="M283 757q32 0 56.5 -17.5t24.5 -49.5q0 -24 -17 -38q-12 -10 -32 -10q-26 0 -44 31q-17 33 -29 33q-57 0 -57 -310l-3 -98q0 -135 -12.5 -223.5t-34.5 -138.5q-51 -117 -144 -117q-34 0 -56 17t-25 50q0 47 49 47q26 0 43 -30t31 -33q57 0 57 324l2 84q0 66 4.5 124
t10 101.5t13.5 78t19 58.5q50 117 144 117z" />
    <glyph glyph-name="c289" unicode="&#x121;" horiz-adv-x="594" 
d="M15 100v77q92 58 161 58q41 0 113 -24t101 -24q55 0 144 67v-78q-41 -28 -77 -41.5t-72 -13.5q-27 0 -104 24q-33 11 -62.5 17t-53.5 6q-55 0 -150 -68zM15 219v77q46 29 85 43t75 14q38 0 112 -24q35 -11 61 -17t42 -6q54 0 144 66v-77q-41 -28 -77.5 -41.5t-71.5 -13.5
q-18 0 -41 5t-64 18q-72 24 -110 24q-59 0 -155 -68z" />
    <glyph glyph-name="c290" unicode="&#x122;" horiz-adv-x="594" 
d="M488 410l-75 -74h91v-64h-149l-73 -72h222v-64h-281l-118 -118l-43 44l74 74h-91v64h150l73 72h-223v64h281l118 118z" />
    <glyph glyph-name="c291" unicode="&#x123;" horiz-adv-x="594" 
d="M506 86v-68h-463v68h463zM506 388l-344 -108l344 -107v-70l-462 145v65l462 145v-70z" />
    <glyph glyph-name="c292" unicode="&#x124;" horiz-adv-x="594" 
d="M506 86v-68h-463v68h463zM506 313v-65l-463 -145v70l344 107l-344 108v70z" />
    <glyph glyph-name="c293" unicode="&#x125;" horiz-adv-x="594" 
d="M15 100v77q92 58 161 58q41 0 113 -24t101 -24q55 0 144 67v-78q-41 -28 -77 -41.5t-72 -13.5q-27 0 -104 24q-33 11 -62.5 17t-53.5 6q-55 0 -150 -68zM15 219v77q46 29 85 43t75 14q38 0 112 -24q35 -11 61 -17t42 -6q54 0 144 66v-77q-41 -28 -77.5 -41.5t-71.5 -13.5
q-18 0 -41 5t-64 18q-72 24 -110 24q-59 0 -155 -68z" />
    <glyph glyph-name="c294" unicode="&#x126;" horiz-adv-x="534" 
d="M3 289l244 518l244 -518l-244 -522zM435 289l-188 399l-188 -399l188 -403z" />
    <glyph glyph-name="dieresisnarrow" unicode="&#x127;" horiz-adv-x="226" 
d="M-28 610q0 23 17 39q15 17 39 17t41 -17q17 -15 17 -40q0 -24 -17 -41q-15 -17 -41 -17q-23 0 -39.5 17t-16.5 42zM141 609q0 24 17 40.5t41 16.5q23 0 39 -17q17 -15 17 -39q0 -25 -17 -42q-15 -17 -39 -17q-25 0 -41.5 17.5t-16.5 40.5z" />
    <glyph glyph-name="Dieresisnarrow" unicode="&#x128;" horiz-adv-x="226" 
d="M-28 869q0 23 17 39q15 17 39 17t41 -17q17 -15 17 -40q0 -24 -17 -41q-15 -17 -41 -17q-23 0 -39.5 17t-16.5 42zM141 868q0 24 17 40.5t41 16.5q23 0 39 -17q17 -15 17 -39q0 -25 -17 -42q-15 -17 -39 -17q-25 0 -41.5 17.5t-16.5 40.5z" />
    <glyph glyph-name="currency1" unicode="&#x129;" horiz-adv-x="494" 
d="M38 211l58 57q-15 22 -22 44t-7 50q0 52 29 94l-57 55q15 21 37 40l59 -59q43 31 95 31q51 0 93 -30l58 59q22 -15 38 -42l-56 -54q30 -42 30 -93q0 -53 -32 -97l58 -57l-8 -10l-9 -9l-22 -20l-57 58q-21 -15 -44 -23t-50 -8q-52 0 -93 31l-61 -58l-9 10l-9 9l-10 11z
M122 360q0 -44 31.5 -76t76.5 -32q44 0 76 32t32 76t-32 76t-76 32q-45 0 -76.5 -32.5t-31.5 -75.5z" />
    <glyph glyph-name="daggerdbl1" unicode="&#x12a;" horiz-adv-x="678" 
d="M22 51l6 87v35q-3 27 -4 42q124 -26 229 -26l15 1h15l2 86l-3 96l-44 1q-93 0 -215 -24l5 100l-1 62q63 -11 127.5 -17t126.5 -6l1 20v20q0 113 -27 244l89 -8q25 0 75 6q-24 -143 -24 -282h18q65 0 120.5 5t122.5 18q-6 -60 -6 -89v-26.5t4 -48.5q-127 25 -222 25h-38
l-4 -88q0 -20 1 -44t4 -51h31q113 0 229 25q-6 -60 -6 -90l3 -74q-63 11 -129.5 17.5t-127.5 6.5v-37q0 -39 1 -69t4.5 -60.5t23.5 -118.5q-28 4 -49.5 6t-43.5 2l-73 -3q24 138 24 278q-129 0 -260 -21z" />
    <glyph glyph-name="Euro_master1" unicode="&#x12b;" horiz-adv-x="713" 
d="M677 693l4 -146q-55 63 -95 84q-19 11 -44 17t-56 6q-95 0 -160 -85t-65 -211q0 -119 66.5 -199t167.5 -80q57 0 97.5 21.5t94.5 82.5l-20 -143q-61 -27 -97 -36q-19 -4 -46.5 -7t-55.5 -3q-161 0 -263 101t-102 261q0 159 110 266t277 107q82 0 187 -36zM609 380h-582
l31 73h582zM560 268h-533l31 73h533z" />
    <glyph glyph-name="Dotaccent" unicode="&#x12c;" horiz-adv-x="153" 
d="M0 787q0 32 22 54t54 22t54.5 -21.5t22.5 -54.5q0 -32 -22.5 -54.5t-54.5 -22.5t-54 22q-11 11 -16.5 24.5t-5.5 30.5z" />
    <glyph glyph-name="Breve" unicode="&#x12d;" horiz-adv-x="281" 
d="M0 827h77q44 -65 64 -65q18 0 61 65h79q-54 -145 -144 -145q-48 0 -79.5 32.5t-57.5 112.5z" />
    <glyph glyph-name="Ring" unicode="&#x12e;" horiz-adv-x="202" 
d="M19 779q0 33 24 57t58 24q32 0 57 -24t25 -57q0 -32 -24 -58q-12 -11 -26 -17t-32 -6q-34 0 -58 23.5t-24 57.5zM101 818q-16 0 -27.5 -11t-11.5 -28q0 -16 11 -28q11 -9 28 -11q16 0 27 11q9 11 11 28q0 16 -11 27.5t-27 11.5z" />
    <glyph glyph-name="Tilde" unicode="&#x12f;" horiz-adv-x="314" 
d="M0 810q11 108 94 108q32 0 82 -14l41 -7q17 0 20 18h77q-12 -107 -89 -107q-27 0 -84 15l-38 7q-20 0 -24 -20h-79z" />
    <glyph glyph-name="Idotaccent" unicode="&#x130;" horiz-adv-x="281" 
d="M0 808l80 126h130l71 -126h-77l-63 65l-62 -65h-79z" />
    <glyph glyph-name="dotlessi.001" horiz-adv-x="854" 
d="M413 593l-5 1l-1 7v11q0 64 48 113.5t114 62.5v-12l1 -18q0 -58 -46 -111.5t-104 -53.5h-7zM735 197q-45 -98 -74 -137q-57 -77 -126 -77q-22 0 -64 16t-60 16q-22 0 -64 -16t-62 -16q-62 0 -126 86q-51 69 -77.5 142.5t-26.5 148.5q0 101 58.5 171.5t160.5 70.5
q30 0 75 -17t61 -17q17 0 61.5 17t72.5 17q105 0 175 -80q-98 -61 -98 -160q0 -115 114 -165z" />
    <glyph glyph-name="Acute" unicode="&#x132;" horiz-adv-x="298" 
d="M99 809l82 129h126l-139 -129h-69z" />
    <glyph glyph-name="Caron" unicode="&#x133;" horiz-adv-x="281" 
d="M0 934h77l64 -65l61 65h79l-80 -125h-130z" />
    <glyph glyph-name="Dieresis" unicode="&#x134;" horiz-adv-x="276" 
d="M-28 805q0 24 18 42t43 18q24 0 42 -17.5t18 -42.5q0 -23 -17.5 -42t-42.5 -19q-23 0 -42 18t-19 43zM184 805q0 25 17.5 42.5t41.5 17.5t43 -17.5t19 -42.5q0 -23 -17.5 -42t-43.5 -19q-23 0 -43 18q-17 19 -17 43z" />
    <glyph glyph-name="Grave" unicode="&#x135;" horiz-adv-x="302" 
d="M17 936h126l75 -129h-70z" />
    <glyph glyph-name="Dblacute" unicode="&#x136;" horiz-adv-x="298" 
d="M31 152v938h438v-938h-438zM438 183v876h-376v-876h376z" />
    <glyph glyph-name="Macron" unicode="&#x137;" horiz-adv-x="292" 
d="M0 702v75h292v-75h-292z" />
    <glyph glyph-name="onefitted" unicode="&#x138;" horiz-adv-x="290" 
d="M11 547q76 50 112.5 81t103.5 101v-627q0 -48 30 -102h-207q31 48 31 97v450h-70z" />
    <glyph glyph-name="char998" unicode="&#x139;" horiz-adv-x="694" 
 />
    <glyph glyph-name="char999" unicode="&#x13a;" horiz-adv-x="290" 
 />
    <glyph glyph-name="bp1" unicode="&#x13b;" horiz-adv-x="288" 
d="M8 870l183 -46l27 -51h-148z" />
    </font>
</defs>
</svg>
